<svg xmlns="http://www.w3.org/2000/svg" xmlns:xlink="http://www.w3.org/1999/xlink" width="466" zoomAndPan="magnify" viewBox="0 0 349.5 103.5" height="138" preserveAspectRatio="xMidYMid meet" version="1.0"><defs><g/><clipPath id="85dd0c6dd2"><path d="M 65.78125 50.308594 L 76.53125 50.308594 L 76.53125 56.578125 L 65.78125 56.578125 Z M 65.78125 50.308594 " clip-rule="nonzero"/></clipPath><clipPath id="47617127de"><path d="M 314 59 L 327 59 L 327 72 L 314 72 Z M 314 59 " clip-rule="nonzero"/></clipPath><clipPath id="a4d3e53c92"><path d="M 314.957031 67.585938 L 321.722656 59.234375 L 326.59375 63.179688 L 319.832031 71.53125 Z M 314.957031 67.585938 " clip-rule="nonzero"/></clipPath><clipPath id="88ee4adf56"><path d="M 181 8 L 269 8 L 269 103.003906 L 181 103.003906 Z M 181 8 " clip-rule="nonzero"/></clipPath><clipPath id="25a3514d5c"><path d="M 264 11 L 348.410156 11 L 348.410156 98 L 264 98 Z M 264 11 " clip-rule="nonzero"/></clipPath><clipPath id="7e7a5d4e25"><path d="M 0.589844 7 L 70 7 L 70 100 L 0.589844 100 Z M 0.589844 7 " clip-rule="nonzero"/></clipPath><clipPath id="194dc62184"><path d="M 85 13 L 158 13 L 158 103.003906 L 85 103.003906 Z M 85 13 " clip-rule="nonzero"/></clipPath></defs><g clip-path="url(#85dd0c6dd2)"><path fill="#004873" d="M 65.78125 50.308594 L 76.535156 50.308594 L 76.535156 56.578125 L 65.78125 56.578125 Z M 65.78125 50.308594 " fill-opacity="1" fill-rule="nonzero"/></g><g clip-path="url(#47617127de)"><g clip-path="url(#a4d3e53c92)"><path fill="#7e5600" d="M 314.957031 67.585938 L 321.722656 59.230469 L 326.597656 63.175781 L 319.832031 71.53125 Z M 314.957031 67.585938 " fill-opacity="1" fill-rule="nonzero"/></g></g><g clip-path="url(#88ee4adf56)"><path stroke-linecap="butt" transform="matrix(0.430775, 0, 0, 0.430775, 203.01255, 7.877594)" fill="none" stroke-linejoin="miter" d="M 79.270118 59.171442 L 92.300767 61.946235 C 90.831759 69.14619 89.399022 76.328009 88.002557 83.509828 C 86.624229 90.664444 85.2459 97.855331 83.867571 105.073422 C 82.471106 112.273377 81.129049 119.4824 79.841399 126.70049 L 77.746702 138.751801 L 75.815228 149.551733 L 74.019773 160.659976 L 61.524134 162.455431 C 61.170483 161.820674 60.816833 161.113374 60.481319 160.324462 C 60.16394 159.526482 59.873766 158.764774 59.601727 158.021202 L 58.486369 155.68167 C 58.39569 155.50031 58.25967 155.128524 58.078311 154.566311 L 57.497962 153.178914 L 55.566488 148.028317 C 55.303517 147.103386 55.013343 146.19659 54.723168 145.289795 C 54.45113 144.364864 54.133751 143.485272 53.780101 142.651021 L 52.927714 139.876227 C 52.746355 139.395625 52.592199 138.93316 52.45618 138.48883 C 52.320161 138.008228 52.211345 137.681782 52.120666 137.500423 L 51.268278 134.725629 L 49.608843 129.176042 C 49.04663 127.326179 48.484417 125.485385 47.922203 123.653658 C 47.378126 121.803796 46.834049 119.953933 46.29904 118.104071 L 46.126749 117.804828 L 43.923236 125.313094 L 42.671858 129.620371 L 40.169103 137.364404 L 37.557533 145.833872 L 34.918758 154.022234 L 28.389832 153.849943 L 22.024129 153.586972 L 21.180809 149.996063 L 20.364693 146.368881 C 20.074519 145.0903 19.784344 143.84799 19.521373 142.651021 C 19.249335 141.426847 18.968228 140.175469 18.668986 138.88782 L 17.14557 131.406758 L 16.066483 126.265229 C 15.141552 121.096495 14.26196 115.973102 13.427709 110.895048 C 12.593457 105.708178 11.840817 100.521309 11.187924 95.361644 C 10.562235 90.19291 9.963751 84.960701 9.392469 79.683152 L 22.704225 78.431775 C 23.175759 83.527964 23.728904 88.59695 24.354593 93.629664 C 25.016553 98.662379 25.760125 103.722297 26.594377 108.80035 C 27.428629 113.89654 28.30822 118.892983 29.233151 123.789677 L 29.641209 126.265229 L 31.164626 121.422942 L 34.075439 111.711164 L 36.442174 103.105676 L 38.917726 94.509256 L 45.174614 93.965179 L 51.404298 93.566189 L 52.392704 95.896653 C 52.474316 96.105216 52.564996 96.295643 52.655675 96.477002 C 52.746355 96.658361 52.837034 96.83972 52.927714 97.012011 L 53.335772 98.408476 L 55.439537 103.550005 C 55.521148 103.912724 55.657168 104.329849 55.838527 104.801383 C 56.019886 105.254781 56.155905 105.708178 56.246585 106.152508 L 58.078311 111.575144 L 58.61332 112.962541 L 58.885359 114.077899 C 59.538252 116.018441 60.136737 117.913644 60.680814 119.763506 C 61.243027 121.613369 61.814308 123.463231 62.376521 125.313094 L 65.015296 134.054601 L 66.81075 124.333755 C 68.0984 116.934305 69.386049 109.679942 70.664631 102.570667 C 72.070163 95.343508 73.475696 88.134485 74.899365 80.93453 C 76.341169 73.716439 77.80111 66.462076 79.270118 59.171442 Z M 79.270118 59.171442 " stroke="#7e5600" stroke-width="10.400025" stroke-opacity="1" stroke-miterlimit="4"/></g><g fill="#fcc95d" fill-opacity="1"><g transform="translate(205.805859, 76.370861)"><g><path d="M 31.359375 -43.015625 L 36.96875 -41.8125 C 36.332031 -38.707031 35.71875 -35.609375 35.125 -32.515625 C 34.53125 -29.429688 33.929688 -26.335938 33.328125 -23.234375 C 32.734375 -20.128906 32.15625 -17.023438 31.59375 -13.921875 L 30.703125 -8.71875 L 29.859375 -4.0625 L 29.09375 0.71875 L 23.71875 1.5 C 23.550781 1.21875 23.398438 0.90625 23.265625 0.5625 C 23.128906 0.226562 23 -0.0976562 22.875 -0.421875 L 22.40625 -1.4375 C 22.363281 -1.507812 22.300781 -1.664062 22.21875 -1.90625 L 21.984375 -2.515625 L 21.140625 -4.71875 C 21.023438 -5.113281 20.90625 -5.507812 20.78125 -5.90625 C 20.664062 -6.3125 20.53125 -6.691406 20.375 -7.046875 L 20.015625 -8.25 C 19.929688 -8.445312 19.859375 -8.644531 19.796875 -8.84375 C 19.742188 -9.039062 19.695312 -9.179688 19.65625 -9.265625 L 19.296875 -10.453125 L 18.578125 -12.84375 C 18.335938 -13.632812 18.097656 -14.425781 17.859375 -15.21875 C 17.617188 -16.019531 17.378906 -16.820312 17.140625 -17.625 L 17.078125 -17.734375 L 16.125 -14.515625 L 15.59375 -12.65625 L 14.515625 -9.3125 L 13.375 -5.671875 L 12.25 -2.15625 L 9.4375 -2.203125 L 6.6875 -2.328125 L 6.328125 -3.875 L 5.96875 -5.4375 C 5.851562 -5.988281 5.734375 -6.523438 5.609375 -7.046875 C 5.492188 -7.566406 5.375 -8.101562 5.25 -8.65625 L 4.59375 -11.890625 L 4.125 -14.09375 C 3.726562 -16.320312 3.347656 -18.535156 2.984375 -20.734375 C 2.628906 -22.960938 2.3125 -25.191406 2.03125 -27.421875 C 1.75 -29.648438 1.488281 -31.898438 1.25 -34.171875 L 6.984375 -34.703125 C 7.179688 -32.515625 7.421875 -30.332031 7.703125 -28.15625 C 7.984375 -25.988281 8.300781 -23.8125 8.65625 -21.625 C 9.019531 -19.4375 9.398438 -17.285156 9.796875 -15.171875 L 9.96875 -14.09375 L 10.625 -16.1875 L 11.890625 -20.375 L 12.90625 -24.078125 L 13.984375 -27.78125 L 16.671875 -28.015625 L 19.359375 -28.1875 L 19.765625 -27.171875 C 19.804688 -27.097656 19.847656 -27.019531 19.890625 -26.9375 C 19.929688 -26.863281 19.972656 -26.785156 20.015625 -26.703125 L 20.1875 -26.109375 L 21.09375 -23.890625 C 21.125 -23.734375 21.179688 -23.554688 21.265625 -23.359375 C 21.347656 -23.160156 21.40625 -22.960938 21.4375 -22.765625 L 22.21875 -20.421875 L 22.453125 -19.828125 L 22.578125 -19.359375 C 22.859375 -18.515625 23.117188 -17.691406 23.359375 -16.890625 C 23.597656 -16.097656 23.835938 -15.304688 24.078125 -14.515625 L 25.203125 -10.75 L 25.984375 -14.9375 C 26.546875 -18.125 27.101562 -21.25 27.65625 -24.3125 C 28.25 -27.414062 28.851562 -30.519531 29.46875 -33.625 C 30.09375 -36.738281 30.722656 -39.867188 31.359375 -43.015625 Z M 31.359375 -43.015625 "/></g></g></g><g clip-path="url(#25a3514d5c)"><path stroke-linecap="butt" transform="matrix(0.602428, 0, 0, 0.602428, 283.57455, 8.312933)" fill="none" stroke-linejoin="miter" d="M 33.63288 46.57513 L 43.145169 47.158706 C 42.827444 51.853251 42.50972 56.567248 42.204963 61.294213 C 41.913175 66.021179 41.64084 70.735176 41.381473 75.429721 C 41.109137 80.111297 40.875707 84.799358 40.681182 89.493902 C 40.486656 94.188447 40.318068 98.857055 40.168932 103.486758 L 30.656643 103.292232 C 30.656643 102.890213 30.656643 102.494679 30.656643 102.105628 C 30.656643 101.703609 30.656643 101.30159 30.656643 100.899571 C 30.332434 100.964413 30.034162 101.02277 29.761826 101.087612 C 29.632143 101.171906 29.502459 101.210811 29.372776 101.210811 C 29.243092 101.210811 29.113409 101.243232 28.990209 101.308074 C 28.776231 101.308074 28.607643 101.327527 28.477959 101.353463 C 28.348276 101.385884 28.218592 101.405337 28.088909 101.405337 C 27.881415 101.405337 27.647984 101.405337 27.388617 101.405337 C 27.12925 101.405337 26.863399 101.405337 26.591063 101.405337 C 25.735152 101.405337 24.775494 101.30159 23.712089 101.087612 C 21.870582 100.640204 20.119854 99.913976 18.459905 98.908928 C 17.007449 97.929817 15.652256 96.710792 14.387841 95.258336 C 14.134958 94.856317 13.875591 94.493203 13.616224 94.168994 C 13.473572 93.955017 13.33092 93.754007 13.207721 93.559482 C 13.078037 93.371441 12.948354 93.176915 12.81867 92.98239 C 12.688986 92.768412 12.565787 92.554434 12.455556 92.327488 C 12.358293 92.100542 12.241578 91.886564 12.118379 91.672586 C 11.923853 91.160336 11.761749 90.699959 11.632065 90.291456 C 11.035521 88.586117 10.737249 86.770548 10.737249 84.844747 C 10.737249 82.990272 11.067942 81.168218 11.729328 79.378585 L 11.923853 78.697746 L 12.209157 78.094718 C 12.273999 77.900193 12.358293 77.705667 12.455556 77.511142 C 12.565787 77.303648 12.688986 77.070218 12.81867 76.810851 C 12.883512 76.616325 12.980774 76.4218 13.110458 76.227275 C 13.233657 76.019781 13.376309 75.818771 13.518961 75.624246 C 13.583803 75.494563 13.713487 75.293553 13.908012 75.021218 L 14.387841 74.437642 C 15.587414 72.907376 17.143617 71.681866 19.062933 70.761113 C 20.774756 69.905201 22.590326 69.379983 24.509642 69.185458 C 27.090345 68.84828 29.638627 69.211394 32.160972 70.2748 C 32.349013 66.306483 32.57596 62.338166 32.835327 58.363365 C 33.107662 54.395048 33.373513 50.465637 33.63288 46.57513 Z M 31.168893 88.021994 C 31.227251 87.166082 31.279124 86.310171 31.311545 85.45426 C 31.343966 84.578896 31.389355 83.7165 31.454197 82.860588 C 31.324513 82.134361 31.123504 81.570237 30.851168 81.168218 C 30.591801 80.571674 30.196266 80.078876 29.664564 79.689826 C 28.406633 78.756104 27.019019 78.39299 25.501722 78.600484 C 23.85474 78.795009 22.59681 79.423974 21.72793 80.487379 C 21.72793 80.552221 21.695509 80.617063 21.630668 80.681905 C 21.565826 80.746747 21.500984 80.811588 21.436142 80.87643 C 21.436142 80.941272 21.403721 81.006114 21.33888 81.070955 C 21.274038 81.135797 21.209196 81.23306 21.144354 81.362743 C 21.014671 81.635079 20.949829 81.803667 20.949829 81.868509 L 20.755304 82.160297 L 20.638588 82.452085 C 20.379221 83.256123 20.249538 84.086098 20.249538 84.94201 C 20.249538 85.733079 20.379221 86.491728 20.638588 87.217956 C 20.638588 87.347639 20.709914 87.516228 20.852566 87.730206 C 20.852566 87.859889 20.884987 87.957152 20.949829 88.021994 C 21.014671 88.080352 21.047092 88.145193 21.047092 88.210035 C 21.111933 88.274877 21.176775 88.339719 21.241617 88.40456 C 21.306459 88.469402 21.33888 88.566665 21.33888 88.696348 C 21.468563 88.839 21.598247 89.014073 21.72793 89.202114 C 22.921019 90.589728 24.276212 91.44564 25.79351 91.769849 C 26.195529 91.854143 26.526222 91.893048 26.785589 91.893048 C 26.850431 91.893048 26.928241 91.893048 27.025503 91.893048 C 27.142219 91.893048 27.226513 91.893048 27.291355 91.893048 C 27.291355 91.893048 27.356196 91.893048 27.48588 91.893048 C 27.550722 91.893048 27.583143 91.893048 27.583143 91.893048 C 27.583143 91.893048 27.615564 91.893048 27.680405 91.893048 C 28.212108 91.67907 28.74381 91.380798 29.275513 90.998232 C 29.872057 90.531371 30.332434 89.993184 30.656643 89.39664 C 30.851168 89.078915 30.980852 88.800095 31.045694 88.573149 C 31.123504 88.333234 31.168893 88.145193 31.168893 88.021994 Z M 75.559574 93.079653 L 75.559574 93.559482 C 75.773551 94.823896 75.741131 96.114248 75.462311 97.43702 C 75.202944 98.824634 74.68421 100.082564 73.89314 101.210811 C 73.10207 102.32609 72.174833 103.259812 71.104944 104.01846 C 70.060991 104.777109 68.939228 105.328264 67.739655 105.665442 C 66.611408 105.98965 65.41832 106.151755 64.160389 106.151755 C 62.980269 106.151755 61.793664 106.022071 60.600576 105.762704 C 58.292208 105.101318 56.275629 103.843388 54.550838 101.988913 C 53.82461 101.133001 53.195645 100.212248 52.663942 99.226653 C 52.145208 98.22809 51.717252 97.23601 51.380075 96.250415 L 60.503313 93.462219 C 60.76268 94.31813 61.158215 95.011938 61.689917 95.550124 C 62.091937 96.081827 62.584734 96.41252 63.16831 96.542203 C 63.505487 96.607045 63.803759 96.639466 64.063127 96.639466 C 64.400304 96.639466 64.698576 96.607045 64.957943 96.542203 C 65.424804 96.41252 65.787918 96.17909 66.047285 95.835428 C 66.112127 95.770586 66.144548 95.640903 66.144548 95.452862 C 66.209389 95.258336 66.209389 95.057327 66.144548 94.843349 L 66.144548 94.648824 C 66.079706 94.583982 66.047285 94.493203 66.047285 94.36352 C 66.047285 94.36352 66.047285 94.344067 66.047285 94.311646 C 66.047285 94.279225 66.014864 94.266257 65.950022 94.266257 C 65.950022 94.266257 65.950022 94.246805 65.950022 94.214384 C 65.950022 94.181963 65.950022 94.168994 65.950022 94.168994 C 65.88518 94.104153 65.85276 94.071732 65.85276 94.071732 C 65.917601 94.136574 65.88518 94.065248 65.755497 93.85127 L 65.658234 93.754007 C 65.723076 93.818849 65.690655 93.818849 65.560972 93.754007 C 65.431288 93.559482 65.068174 93.274178 64.47163 92.885127 C 64.004769 92.612792 63.473066 92.31452 62.876522 91.990311 L 60.795101 90.900969 C 60.470892 90.686991 60.107778 90.473013 59.705759 90.246067 C 59.316708 90.019121 58.888753 89.740301 58.421892 89.39664 L 57.818863 88.91681 L 57.235287 88.40456 C 56.833268 88.080352 56.470154 87.749658 56.145946 87.412481 C 55.419718 86.751095 54.758332 85.960025 54.161787 85.039272 C 53.500401 84.183361 52.968698 83.256123 52.566679 82.25756 C 52.112787 81.207123 51.782094 80.150202 51.5746 79.086797 C 51.380075 77.828867 51.315233 76.674683 51.380075 75.624246 C 51.509758 74.560841 51.743189 73.439078 52.080366 72.258958 C 52.871436 69.807939 54.25905 67.82378 56.243208 66.306483 C 58.292208 64.789185 60.600576 63.991631 63.16831 63.907337 C 65.684171 63.842495 67.999022 64.43904 70.112864 65.703454 L 70.813156 66.20922 C 70.942839 66.274062 71.072523 66.338904 71.202206 66.403745 C 71.33189 66.468587 71.468057 66.56585 71.617194 66.695533 C 71.876561 66.967869 72.097023 67.201299 72.291548 67.395825 C 72.505526 67.525508 72.738956 67.758939 72.991839 68.096116 C 73.400342 68.550008 73.744004 69.010385 74.035792 69.477246 C 74.32758 69.944106 74.6064 70.404483 74.885219 70.858376 C 75.805972 72.648009 76.434938 74.599746 76.772115 76.713588 L 67.331152 78.094718 C 67.136627 77.044281 66.844839 76.084623 66.462272 75.215743 C 66.248294 74.891534 66.047285 74.599746 65.85276 74.340379 C 65.723076 74.262569 65.658234 74.223664 65.658234 74.223664 C 65.658234 74.158822 65.658234 74.126401 65.658234 74.126401 C 65.658234 74.126401 65.593392 74.09398 65.463709 74.029138 C 65.405351 73.964297 65.327541 73.931876 65.249731 73.931876 C 64.730997 73.607667 64.140937 73.445562 63.479551 73.445562 C 62.883006 73.445562 62.416145 73.607667 62.078968 73.931876 C 61.625076 74.269053 61.294383 74.735914 61.086889 75.332458 C 60.957205 75.721509 60.892364 76.045718 60.892364 76.305085 C 60.892364 76.57742 60.924785 76.947018 60.989626 77.413879 C 61.054468 77.738088 61.158215 78.101202 61.300867 78.503221 C 61.495392 78.892272 61.722338 79.255386 61.981705 79.592563 C 62.254041 80.046455 62.552313 80.409569 62.876522 80.681905 C 63.006206 80.811588 63.174794 80.973693 63.382288 81.168218 L 63.674076 81.460006 L 63.965864 81.673984 C 64.367883 81.933351 64.867165 82.231623 65.463709 82.575285 L 67.454351 83.541427 C 68.245421 84.008288 68.971649 84.475149 69.633035 84.94201 C 70.080443 85.201377 70.508399 85.48668 70.910418 85.791437 C 71.318921 86.083225 71.746877 86.426886 72.194285 86.835389 C 72.323969 87.023431 72.421232 87.120693 72.486073 87.120693 L 72.803798 87.509744 C 72.86864 87.574586 72.94645 87.678333 73.043713 87.827469 C 73.140975 87.957152 73.251206 88.080352 73.38089 88.210035 C 73.594868 88.469402 73.776425 88.735253 73.938529 89.014073 C 74.100634 89.266956 74.275706 89.565228 74.470232 89.90889 C 74.619368 90.168257 74.755536 90.466529 74.885219 90.803706 C 75.014903 91.127915 75.138102 91.44564 75.267786 91.769849 L 75.462311 92.664665 Z M 75.559574 93.079653 " stroke="#7e5600" stroke-width="7.436693" stroke-opacity="1" stroke-miterlimit="4"/></g><g fill="#fcc95d" fill-opacity="1"><g transform="translate(287.650351, 76.387293)"><g><path d="M 16.1875 -40.015625 L 21.921875 -39.65625 C 21.722656 -36.832031 21.535156 -33.992188 21.359375 -31.140625 C 21.179688 -28.296875 21.007812 -25.460938 20.84375 -22.640625 C 20.6875 -19.804688 20.546875 -16.976562 20.421875 -14.15625 C 20.304688 -11.332031 20.207031 -8.523438 20.125 -5.734375 L 14.390625 -5.859375 C 14.390625 -6.097656 14.390625 -6.332031 14.390625 -6.5625 C 14.390625 -6.800781 14.390625 -7.039062 14.390625 -7.28125 C 14.191406 -7.25 14.015625 -7.210938 13.859375 -7.171875 C 13.773438 -7.128906 13.691406 -7.109375 13.609375 -7.109375 C 13.535156 -7.109375 13.457031 -7.085938 13.375 -7.046875 C 13.257812 -7.046875 13.160156 -7.035156 13.078125 -7.015625 C 13.003906 -6.992188 12.925781 -6.984375 12.84375 -6.984375 C 12.71875 -6.984375 12.578125 -6.984375 12.421875 -6.984375 C 12.265625 -6.984375 12.109375 -6.984375 11.953125 -6.984375 C 11.429688 -6.984375 10.851562 -7.046875 10.21875 -7.171875 C 9.101562 -7.453125 8.046875 -7.890625 7.046875 -8.484375 C 6.171875 -9.078125 5.351562 -9.8125 4.59375 -10.6875 C 4.4375 -10.925781 4.28125 -11.144531 4.125 -11.34375 C 4.039062 -11.46875 3.957031 -11.585938 3.875 -11.703125 C 3.800781 -11.828125 3.722656 -11.945312 3.640625 -12.0625 C 3.566406 -12.1875 3.5 -12.316406 3.4375 -12.453125 C 3.375 -12.585938 3.300781 -12.71875 3.21875 -12.84375 C 3.101562 -13.164062 3.003906 -13.441406 2.921875 -13.671875 C 2.566406 -14.710938 2.390625 -15.8125 2.390625 -16.96875 C 2.390625 -18.082031 2.585938 -19.175781 2.984375 -20.25 L 3.109375 -20.671875 L 3.28125 -21.03125 C 3.320312 -21.144531 3.375 -21.257812 3.4375 -21.375 C 3.5 -21.5 3.566406 -21.640625 3.640625 -21.796875 C 3.679688 -21.921875 3.738281 -22.039062 3.8125 -22.15625 C 3.894531 -22.28125 3.976562 -22.398438 4.0625 -22.515625 C 4.101562 -22.597656 4.179688 -22.71875 4.296875 -22.875 L 4.59375 -23.234375 C 5.3125 -24.148438 6.25 -24.890625 7.40625 -25.453125 C 8.4375 -25.960938 9.53125 -26.28125 10.6875 -26.40625 C 12.238281 -26.601562 13.773438 -26.382812 15.296875 -25.75 C 15.410156 -28.132812 15.546875 -30.519531 15.703125 -32.90625 C 15.867188 -35.300781 16.03125 -37.671875 16.1875 -40.015625 Z M 14.6875 -15.046875 C 14.726562 -15.566406 14.757812 -16.082031 14.78125 -16.59375 C 14.800781 -17.113281 14.832031 -17.632812 14.875 -18.15625 C 14.789062 -18.59375 14.671875 -18.929688 14.515625 -19.171875 C 14.359375 -19.535156 14.117188 -19.835938 13.796875 -20.078125 C 13.035156 -20.628906 12.203125 -20.847656 11.296875 -20.734375 C 10.296875 -20.609375 9.535156 -20.226562 9.015625 -19.59375 C 9.015625 -19.550781 8.992188 -19.507812 8.953125 -19.46875 C 8.921875 -19.425781 8.882812 -19.390625 8.84375 -19.359375 C 8.84375 -19.316406 8.820312 -19.273438 8.78125 -19.234375 C 8.738281 -19.191406 8.695312 -19.132812 8.65625 -19.0625 C 8.582031 -18.894531 8.546875 -18.789062 8.546875 -18.75 L 8.421875 -18.578125 L 8.359375 -18.390625 C 8.203125 -17.921875 8.125 -17.425781 8.125 -16.90625 C 8.125 -16.425781 8.203125 -15.96875 8.359375 -15.53125 C 8.359375 -15.445312 8.398438 -15.347656 8.484375 -15.234375 C 8.484375 -15.148438 8.503906 -15.085938 8.546875 -15.046875 C 8.585938 -15.015625 8.609375 -14.976562 8.609375 -14.9375 C 8.640625 -14.894531 8.675781 -14.851562 8.71875 -14.8125 C 8.757812 -14.769531 8.78125 -14.710938 8.78125 -14.640625 C 8.863281 -14.554688 8.941406 -14.457031 9.015625 -14.34375 C 9.734375 -13.5 10.550781 -12.976562 11.46875 -12.78125 C 11.707031 -12.738281 11.90625 -12.71875 12.0625 -12.71875 C 12.101562 -12.71875 12.15625 -12.71875 12.21875 -12.71875 C 12.28125 -12.71875 12.328125 -12.71875 12.359375 -12.71875 C 12.359375 -12.71875 12.398438 -12.71875 12.484375 -12.71875 C 12.523438 -12.71875 12.546875 -12.71875 12.546875 -12.71875 C 12.546875 -12.71875 12.566406 -12.71875 12.609375 -12.71875 C 12.921875 -12.84375 13.238281 -13.023438 13.5625 -13.265625 C 13.914062 -13.535156 14.191406 -13.851562 14.390625 -14.21875 C 14.515625 -14.414062 14.59375 -14.582031 14.625 -14.71875 C 14.664062 -14.863281 14.6875 -14.972656 14.6875 -15.046875 Z M 14.6875 -15.046875 "/></g></g></g><g fill="#fcc95d" fill-opacity="1"><g transform="translate(312.018182, 76.387293)"><g><path d="M 17.078125 -12 L 17.078125 -11.703125 C 17.203125 -10.953125 17.1875 -10.175781 17.03125 -9.375 C 16.863281 -8.539062 16.539062 -7.785156 16.0625 -7.109375 C 15.59375 -6.429688 15.035156 -5.863281 14.390625 -5.40625 C 13.753906 -4.945312 13.078125 -4.617188 12.359375 -4.421875 C 11.679688 -4.222656 10.96875 -4.125 10.21875 -4.125 C 9.5 -4.125 8.78125 -4.203125 8.0625 -4.359375 C 6.664062 -4.753906 5.453125 -5.507812 4.421875 -6.625 C 3.984375 -7.144531 3.601562 -7.703125 3.28125 -8.296875 C 2.96875 -8.898438 2.710938 -9.5 2.515625 -10.09375 L 8 -11.765625 C 8.164062 -11.242188 8.40625 -10.828125 8.71875 -10.515625 C 8.957031 -10.191406 9.257812 -9.992188 9.625 -9.921875 C 9.820312 -9.878906 10 -9.859375 10.15625 -9.859375 C 10.351562 -9.859375 10.53125 -9.878906 10.6875 -9.921875 C 10.96875 -9.992188 11.1875 -10.128906 11.34375 -10.328125 C 11.382812 -10.367188 11.40625 -10.453125 11.40625 -10.578125 C 11.445312 -10.691406 11.445312 -10.8125 11.40625 -10.9375 L 11.40625 -11.046875 C 11.363281 -11.085938 11.34375 -11.148438 11.34375 -11.234375 C 11.34375 -11.234375 11.34375 -11.242188 11.34375 -11.265625 C 11.34375 -11.285156 11.328125 -11.296875 11.296875 -11.296875 C 11.296875 -11.296875 11.296875 -11.300781 11.296875 -11.3125 C 11.296875 -11.332031 11.296875 -11.34375 11.296875 -11.34375 C 11.253906 -11.382812 11.234375 -11.40625 11.234375 -11.40625 C 11.273438 -11.363281 11.253906 -11.40625 11.171875 -11.53125 L 11.109375 -11.59375 C 11.148438 -11.550781 11.128906 -11.550781 11.046875 -11.59375 C 10.972656 -11.707031 10.753906 -11.882812 10.390625 -12.125 C 10.109375 -12.28125 9.789062 -12.457031 9.4375 -12.65625 L 8.1875 -13.328125 C 7.988281 -13.441406 7.769531 -13.566406 7.53125 -13.703125 C 7.289062 -13.847656 7.03125 -14.019531 6.75 -14.21875 L 6.03125 -14.8125 C 5.789062 -15.007812 5.570312 -15.207031 5.375 -15.40625 C 4.9375 -15.8125 4.539062 -16.289062 4.1875 -16.84375 C 3.78125 -17.363281 3.457031 -17.921875 3.21875 -18.515625 C 2.945312 -19.148438 2.75 -19.785156 2.625 -20.421875 C 2.507812 -21.179688 2.472656 -21.878906 2.515625 -22.515625 C 2.585938 -23.148438 2.722656 -23.828125 2.921875 -24.546875 C 3.398438 -26.023438 4.238281 -27.222656 5.4375 -28.140625 C 6.664062 -29.054688 8.0625 -29.53125 9.625 -29.5625 C 11.132812 -29.601562 12.523438 -29.25 13.796875 -28.5 L 14.21875 -28.1875 C 14.300781 -28.15625 14.378906 -28.117188 14.453125 -28.078125 C 14.535156 -28.035156 14.613281 -27.972656 14.6875 -27.890625 C 14.851562 -27.734375 14.992188 -27.597656 15.109375 -27.484375 C 15.234375 -27.398438 15.375 -27.257812 15.53125 -27.0625 C 15.769531 -26.78125 15.976562 -26.5 16.15625 -26.21875 C 16.332031 -25.945312 16.503906 -25.671875 16.671875 -25.390625 C 17.222656 -24.316406 17.597656 -23.140625 17.796875 -21.859375 L 12.125 -21.03125 C 12.007812 -21.664062 11.832031 -22.242188 11.59375 -22.765625 C 11.46875 -22.960938 11.347656 -23.140625 11.234375 -23.296875 C 11.148438 -23.335938 11.109375 -23.359375 11.109375 -23.359375 C 11.109375 -23.398438 11.109375 -23.421875 11.109375 -23.421875 C 11.109375 -23.421875 11.066406 -23.4375 10.984375 -23.46875 C 10.953125 -23.507812 10.914062 -23.53125 10.875 -23.53125 C 10.550781 -23.726562 10.191406 -23.828125 9.796875 -23.828125 C 9.441406 -23.828125 9.160156 -23.726562 8.953125 -23.53125 C 8.679688 -23.332031 8.484375 -23.054688 8.359375 -22.703125 C 8.285156 -22.460938 8.25 -22.265625 8.25 -22.109375 C 8.25 -21.941406 8.265625 -21.71875 8.296875 -21.4375 C 8.335938 -21.238281 8.398438 -21.019531 8.484375 -20.78125 C 8.597656 -20.539062 8.738281 -20.320312 8.90625 -20.125 C 9.0625 -19.851562 9.238281 -19.632812 9.4375 -19.46875 C 9.519531 -19.394531 9.617188 -19.296875 9.734375 -19.171875 L 9.921875 -19 L 10.09375 -18.875 C 10.332031 -18.71875 10.628906 -18.539062 10.984375 -18.34375 L 12.1875 -17.734375 C 12.664062 -17.460938 13.101562 -17.1875 13.5 -16.90625 C 13.78125 -16.75 14.039062 -16.578125 14.28125 -16.390625 C 14.519531 -16.210938 14.773438 -16.003906 15.046875 -15.765625 C 15.128906 -15.648438 15.191406 -15.59375 15.234375 -15.59375 L 15.40625 -15.359375 C 15.445312 -15.316406 15.5 -15.253906 15.5625 -15.171875 C 15.625 -15.085938 15.691406 -15.007812 15.765625 -14.9375 C 15.890625 -14.769531 16 -14.609375 16.09375 -14.453125 C 16.195312 -14.296875 16.304688 -14.117188 16.421875 -13.921875 C 16.503906 -13.753906 16.582031 -13.570312 16.65625 -13.375 C 16.738281 -13.175781 16.820312 -12.976562 16.90625 -12.78125 L 17.03125 -12.25 Z M 17.078125 -12 "/></g></g></g><path stroke-linecap="butt" transform="matrix(0.602428, 0, 0, 0.602428, 239.914103, 5.973437)" fill="none" stroke-linejoin="miter" d="M 42.892769 78.502644 C 43.23643 80.74617 43.171588 83.022116 42.704728 85.330483 C 42.231383 87.509167 41.401408 89.558167 40.208319 91.477484 C 38.963357 93.532968 37.413639 95.218854 35.559164 96.541627 C 33.639847 97.994083 31.493584 98.953741 29.120375 99.420602 C 27.927287 99.679969 26.747166 99.7902 25.586498 99.757779 C 24.445283 99.725358 23.304068 99.615127 22.175821 99.420602 C 21.047574 99.226076 19.945264 98.914836 18.881859 98.473912 C 17.831422 98.039472 16.81989 97.494801 15.834295 96.826931 C 13.785295 95.439317 12.13183 93.688589 10.867415 91.574747 C 9.674326 89.590588 8.948098 87.379484 8.688731 84.941433 C 8.565532 83.813186 8.546079 82.710876 8.643342 81.628018 C 8.740605 80.532192 8.883257 79.449334 9.077782 78.385929 C 9.29176 77.400334 9.570579 76.382318 9.927209 75.331881 C 10.296807 74.268476 10.744216 73.276397 11.256466 72.355644 C 12.449554 70.241802 13.947399 68.491074 15.737033 67.10346 C 16.398419 66.571757 17.0209 66.163254 17.597992 65.871466 C 18.194536 65.560226 18.79108 65.313827 19.394109 65.119301 C 20.457514 64.782124 21.585761 64.516273 22.77885 64.321748 C 24.82785 64.049412 26.941692 64.049412 29.120375 64.321748 C 29.71692 64.386589 30.274559 64.483852 30.793293 64.613536 C 31.454679 64.743219 32.051224 64.911808 32.582926 65.119301 C 33.776015 65.573194 34.865357 66.163254 35.850952 66.889482 C 36.849515 67.550868 37.776753 68.348422 38.632664 69.282144 C 39.041167 69.736036 39.404281 70.228834 39.722006 70.760536 C 39.916531 71.019903 40.078636 71.253334 40.208319 71.460827 L 40.623307 72.258381 C 41.732101 74.164729 42.49075 76.24615 42.892769 78.502644 Z M 33.38048 83.346325 C 33.639847 82.231046 33.672268 81.141705 33.477743 80.078299 C 33.283217 78.885211 32.920103 77.82829 32.388401 76.907537 C 31.986382 76.310992 31.68811 75.883037 31.493584 75.623669 C 31.169375 75.22165 30.838682 74.890957 30.501505 74.63159 C 30.099486 74.437065 29.703951 74.236055 29.314901 74.028562 C 29.120375 73.96372 28.886945 73.898878 28.614609 73.834036 C 28.614609 73.834036 28.517347 73.834036 28.322821 73.834036 C 28.25798 73.769195 28.128296 73.736774 27.933771 73.736774 C 26.610999 73.60709 25.320647 73.60709 24.062717 73.736774 C 23.466172 73.866457 22.93447 73.996141 22.467609 74.125824 C 22.1434 74.268476 21.884033 74.404644 21.689508 74.534328 C 20.029558 75.8571 18.933732 77.802353 18.395545 80.370087 C 18.142662 81.628018 18.077821 82.788686 18.207504 83.852091 C 18.337188 84.967369 18.63546 85.959449 19.102321 86.834813 C 20.165726 88.540151 21.819191 89.629493 24.062717 90.102838 C 26.2414 90.550247 28.186654 90.154712 29.898477 88.916234 C 30.767356 88.254848 31.500069 87.45081 32.096613 86.517088 C 32.757999 85.466651 33.185955 84.40973 33.38048 83.346325 Z M 76.00098 65.022039 L 76.506746 74.534328 C 74.652271 74.664011 72.901543 75.027125 71.254562 75.623669 C 70.463492 75.947878 69.704844 76.343413 68.978616 76.810274 C 68.641439 77.004799 68.278325 77.23823 67.889274 77.510565 L 67.480771 77.899616 L 66.994457 78.288666 C 65.671685 79.481755 64.679606 80.804527 64.01822 82.256983 C 63.356834 83.709439 63.026141 85.265642 63.026141 86.932075 L 62.928878 86.932075 C 62.99372 89.493326 63.090982 92.054576 63.220666 94.602858 C 63.35035 97.151139 63.473549 99.718874 63.603232 102.299577 L 54.090944 102.78589 C 53.429558 90.420563 52.969181 78.029299 52.709814 65.605615 L 62.228587 65.411089 C 62.228587 66.137317 62.241555 66.863545 62.273976 67.589773 C 62.306397 68.316001 62.325849 69.042229 62.325849 69.768457 C 62.922394 69.301596 63.454096 68.938482 63.920957 68.679115 C 65.178888 67.952887 66.462755 67.323922 67.766075 66.792219 C 70.353261 65.806624 73.096069 65.216564 76.00098 65.022039 Z M 76.00098 65.022039 " stroke="#7e5600" stroke-width="7.436693" stroke-opacity="1" stroke-miterlimit="4"/><g fill="#fcc95d" fill-opacity="1"><g transform="translate(242.700332, 74.047797)"><g><path d="M 23.0625 -20.78125 C 23.257812 -19.425781 23.21875 -18.054688 22.9375 -16.671875 C 22.65625 -15.347656 22.15625 -14.113281 21.4375 -12.96875 C 20.6875 -11.726562 19.753906 -10.710938 18.640625 -9.921875 C 17.484375 -9.046875 16.1875 -8.46875 14.75 -8.1875 C 14.03125 -8.019531 13.320312 -7.945312 12.625 -7.96875 C 11.9375 -7.988281 11.253906 -8.0625 10.578125 -8.1875 C 9.898438 -8.300781 9.238281 -8.488281 8.59375 -8.75 C 7.957031 -9.007812 7.34375 -9.335938 6.75 -9.734375 C 5.507812 -10.566406 4.515625 -11.625 3.765625 -12.90625 C 3.046875 -14.09375 2.609375 -15.425781 2.453125 -16.90625 C 2.367188 -17.582031 2.359375 -18.25 2.421875 -18.90625 C 2.484375 -19.5625 2.570312 -20.207031 2.6875 -20.84375 C 2.8125 -21.445312 2.984375 -22.066406 3.203125 -22.703125 C 3.421875 -23.335938 3.6875 -23.929688 4 -24.484375 C 4.71875 -25.765625 5.613281 -26.820312 6.6875 -27.65625 C 7.082031 -27.976562 7.457031 -28.226562 7.8125 -28.40625 C 8.175781 -28.582031 8.539062 -28.734375 8.90625 -28.859375 C 9.539062 -29.054688 10.21875 -29.210938 10.9375 -29.328125 C 12.164062 -29.484375 13.4375 -29.484375 14.75 -29.328125 C 15.113281 -29.285156 15.453125 -29.226562 15.765625 -29.15625 C 16.171875 -29.070312 16.53125 -28.972656 16.84375 -28.859375 C 17.5625 -28.578125 18.21875 -28.21875 18.8125 -27.78125 C 19.414062 -27.375 19.972656 -26.894531 20.484375 -26.34375 C 20.722656 -26.0625 20.941406 -25.765625 21.140625 -25.453125 C 21.265625 -25.285156 21.363281 -25.144531 21.4375 -25.03125 L 21.6875 -24.546875 C 22.363281 -23.390625 22.820312 -22.132812 23.0625 -20.78125 Z M 17.328125 -17.859375 C 17.484375 -18.535156 17.5 -19.191406 17.375 -19.828125 C 17.257812 -20.546875 17.039062 -21.1875 16.71875 -21.75 C 16.488281 -22.101562 16.3125 -22.359375 16.1875 -22.515625 C 15.988281 -22.753906 15.789062 -22.957031 15.59375 -23.125 C 15.351562 -23.238281 15.113281 -23.351562 14.875 -23.46875 C 14.75 -23.507812 14.609375 -23.550781 14.453125 -23.59375 C 14.453125 -23.59375 14.394531 -23.59375 14.28125 -23.59375 C 14.238281 -23.632812 14.15625 -23.65625 14.03125 -23.65625 C 13.238281 -23.738281 12.460938 -23.738281 11.703125 -23.65625 C 11.347656 -23.570312 11.03125 -23.492188 10.75 -23.421875 C 10.550781 -23.335938 10.394531 -23.253906 10.28125 -23.171875 C 9.28125 -22.378906 8.617188 -21.207031 8.296875 -19.65625 C 8.140625 -18.894531 8.101562 -18.195312 8.1875 -17.5625 C 8.257812 -16.882812 8.4375 -16.285156 8.71875 -15.765625 C 9.351562 -14.734375 10.347656 -14.078125 11.703125 -13.796875 C 13.015625 -13.515625 14.191406 -13.753906 15.234375 -14.515625 C 15.753906 -14.910156 16.191406 -15.390625 16.546875 -15.953125 C 16.941406 -16.585938 17.203125 -17.222656 17.328125 -17.859375 Z M 17.328125 -17.859375 "/></g></g></g><g fill="#fcc95d" fill-opacity="1"><g transform="translate(269.27815, 74.047797)"><g><path d="M 16.421875 -28.90625 L 16.71875 -23.171875 C 15.601562 -23.097656 14.550781 -22.878906 13.5625 -22.515625 C 13.082031 -22.316406 12.625 -22.078125 12.1875 -21.796875 C 11.988281 -21.679688 11.769531 -21.546875 11.53125 -21.390625 L 11.296875 -21.140625 L 10.984375 -20.90625 C 10.191406 -20.1875 9.597656 -19.390625 9.203125 -18.515625 C 8.804688 -17.640625 8.609375 -16.703125 8.609375 -15.703125 L 8.546875 -15.703125 C 8.585938 -14.148438 8.644531 -12.609375 8.71875 -11.078125 C 8.800781 -9.546875 8.878906 -8.003906 8.953125 -6.453125 L 3.21875 -6.15625 C 2.820312 -13.601562 2.546875 -21.066406 2.390625 -28.546875 L 8.125 -28.671875 C 8.125 -28.234375 8.132812 -27.796875 8.15625 -27.359375 C 8.175781 -26.921875 8.1875 -26.484375 8.1875 -26.046875 C 8.539062 -26.328125 8.859375 -26.546875 9.140625 -26.703125 C 9.898438 -27.140625 10.675781 -27.519531 11.46875 -27.84375 C 13.019531 -28.4375 14.671875 -28.789062 16.421875 -28.90625 Z M 16.421875 -28.90625 "/></g></g></g><g clip-path="url(#7e7a5d4e25)"><path stroke-linecap="butt" transform="matrix(0.430775, 0, 0, 0.430775, 10.776047, 5.973434)" fill="none" stroke-linejoin="miter" d="M 77.080614 157.073282 L 64.049965 159.131708 C 62.308918 148.594746 60.722026 138.057784 59.280221 127.520822 C 57.856553 116.974792 56.487292 106.392491 55.181506 95.764849 C 55.090827 95.855529 55.018283 95.973412 54.972943 96.136635 C 54.927604 96.272655 54.909468 96.42681 54.909468 96.608169 C 54.256575 99.092788 53.603682 101.631815 52.941722 104.22525 C 52.316033 106.818684 51.717548 109.466527 51.155335 112.150641 L 48.407745 124.065932 C 48.117571 125.353581 47.80926 126.650299 47.491882 127.956084 C 47.183571 129.243733 46.875261 130.531383 46.585087 131.819032 C 46.313048 133.124817 46.004737 134.421535 45.669223 135.709184 C 45.351845 136.996833 45.06167 138.239143 44.789632 139.436113 L 32.021953 140.007394 L 29.691489 133.07041 L 28.567063 129.615519 L 27.451705 126.133425 L 25.220988 119.051354 L 23.869863 114.345086 L 21.766098 107.272082 C 21.675419 108.106334 21.630079 108.967789 21.630079 109.847381 C 21.630079 110.726972 21.584739 111.57936 21.494059 112.42268 C 21.222021 119.531955 20.895575 126.650299 20.51472 133.77771 C 20.152002 140.886985 19.644197 148.041601 18.991304 155.241556 L 5.688617 154.02645 C 7.066946 140.143413 7.910265 126.097153 8.227644 111.878602 C 8.563158 97.632848 9.524361 83.305481 11.102185 68.887435 L 24.132834 67.899028 C 25.420483 72.623432 26.753472 77.356904 28.131801 82.117579 C 29.528266 86.887323 30.915663 91.620795 32.293992 96.33613 L 36.592202 110.454934 L 37.30857 112.82167 L 38.115618 109.067537 C 38.768511 106.401559 39.412335 103.753716 40.047092 101.114942 C 40.699985 98.476167 41.352877 95.855529 42.014838 93.262094 C 42.667731 90.596116 43.356895 87.939205 44.073263 85.300431 C 44.816836 82.661657 45.614815 80.059154 46.449067 77.483855 C 47.283319 74.799741 48.135707 72.133763 49.015298 69.494988 C 49.894889 66.856214 50.847025 64.244643 51.862635 61.678412 L 64.757265 63.32878 C 66.516448 79.043543 68.393514 94.712967 70.379396 110.355186 C 72.365278 125.970202 74.595995 141.539878 77.080614 157.073282 Z M 77.080614 157.073282 " stroke="#004873" stroke-width="10.400025" stroke-opacity="1" stroke-miterlimit="4"/></g><g fill="#4eade5" fill-opacity="1"><g transform="translate(10.776047, 74.466701)"><g><path d="M 33.21875 -0.84375 L 27.59375 0.0625 C 26.84375 -4.476562 26.15625 -9.019531 25.53125 -13.5625 C 24.914062 -18.101562 24.332031 -22.660156 23.78125 -27.234375 C 23.738281 -27.191406 23.707031 -27.140625 23.6875 -27.078125 C 23.664062 -27.023438 23.65625 -26.957031 23.65625 -26.875 C 23.375 -25.800781 23.09375 -24.707031 22.8125 -23.59375 C 22.539062 -22.476562 22.285156 -21.34375 22.046875 -20.1875 L 20.84375 -15.046875 C 20.726562 -14.492188 20.597656 -13.9375 20.453125 -13.375 C 20.316406 -12.820312 20.191406 -12.265625 20.078125 -11.703125 C 19.953125 -11.148438 19.816406 -10.59375 19.671875 -10.03125 C 19.535156 -9.476562 19.410156 -8.941406 19.296875 -8.421875 L 13.796875 -8.1875 L 12.78125 -11.171875 L 12.3125 -12.65625 L 11.828125 -14.15625 L 10.875 -17.203125 L 10.28125 -19.234375 L 9.375 -22.28125 C 9.332031 -21.925781 9.3125 -21.554688 9.3125 -21.171875 C 9.3125 -20.796875 9.296875 -20.429688 9.265625 -20.078125 C 9.140625 -17.003906 9 -13.929688 8.84375 -10.859375 C 8.6875 -7.796875 8.46875 -4.710938 8.1875 -1.609375 L 2.453125 -2.15625 C 3.046875 -8.125 3.410156 -14.175781 3.546875 -20.3125 C 3.691406 -26.445312 4.101562 -32.617188 4.78125 -38.828125 L 10.390625 -39.25 C 10.953125 -37.21875 11.53125 -35.175781 12.125 -33.125 C 12.71875 -31.070312 13.316406 -29.03125 13.921875 -27 L 15.765625 -20.90625 L 16.0625 -19.890625 L 16.421875 -21.5 C 16.703125 -22.65625 16.984375 -23.800781 17.265625 -24.9375 C 17.546875 -26.070312 17.820312 -27.195312 18.09375 -28.3125 C 18.375 -29.46875 18.671875 -30.613281 18.984375 -31.75 C 19.304688 -32.882812 19.648438 -34.007812 20.015625 -35.125 C 20.367188 -36.28125 20.734375 -37.425781 21.109375 -38.5625 C 21.492188 -39.695312 21.90625 -40.820312 22.34375 -41.9375 L 27.890625 -41.21875 C 28.648438 -34.445312 29.457031 -27.695312 30.3125 -20.96875 C 31.164062 -14.238281 32.132812 -7.53125 33.21875 -0.84375 Z M 33.21875 -0.84375 "/></g></g></g><path stroke-linecap="butt" transform="matrix(0.458691, -0.0113837, 0.0113837, 0.458691, 41.342399, 9.168005)" fill="none" stroke-linejoin="miter" d="M 25.667095 97.243315 C 25.759446 103.130217 25.927971 109.036042 26.181605 114.943979 C 26.435661 120.834894 26.740571 126.735588 27.104846 132.646271 L 14.613025 133.281536 C 14.248117 127.396386 13.944263 121.453138 13.692952 115.451582 C 13.43292 109.458325 13.266295 103.475903 13.184779 97.495593 Z M 19.407706 90.72646 C 17.50641 90.815531 15.85286 90.186885 14.455356 88.849242 C 13.075296 87.495 12.340731 85.86723 12.260381 83.957635 C 12.171521 82.047828 12.799746 80.4113 14.136966 79.030818 C 15.491631 77.633736 17.119822 76.882149 19.030052 76.776267 C 20.939859 76.687407 22.601708 77.324776 24.015811 78.679863 C 25.455869 80.018562 26.182135 81.637609 26.177376 83.545092 C 26.265814 85.471921 25.628445 87.13377 24.273569 88.539363 C 22.93656 89.911334 21.317301 90.646111 19.407706 90.72646 Z M 78.257638 111.160807 C 78.512229 115.314455 78.65639 119.456847 78.698633 123.588194 C 78.740875 127.71954 78.809284 131.825988 78.895771 135.890304 L 66.404944 136.14237 C 66.32057 131.992946 66.251316 127.920542 66.213782 123.942602 C 66.168371 119.938918 66.020831 115.932699 65.762649 111.923735 C 65.683964 110.976497 65.588892 110.003305 65.477431 109.004158 C 65.391503 108.005644 65.313452 107.032874 65.226468 106.076914 C 65.221908 105.574353 65.200326 105.071368 65.161301 104.584983 C 65.122276 104.098598 65.057929 103.603069 64.968472 103.089884 L 64.84204 101.664561 L 64.713831 100.997125 L 64.593499 100.355433 C 64.338497 98.62034 63.983329 97.14676 63.544803 95.943626 C 63.034601 94.883486 62.474029 94.137192 61.854365 93.713041 C 61.771158 93.634331 61.654118 93.546266 61.503036 93.457356 C 61.377274 93.37759 61.369819 93.334824 61.471949 93.337359 C 61.369819 93.334824 61.191092 93.330389 60.935555 93.332563 C 60.677907 93.419846 60.376648 93.548626 60.014757 93.718483 C 59.842428 93.799367 59.669888 93.888761 59.50607 93.969857 C 59.41885 94.052853 59.296318 94.186069 59.121877 94.352061 C 58.421156 95.135182 57.807505 96.184463 57.280927 97.499903 C 57.025092 98.200388 56.767568 98.96896 56.516653 99.81434 L 55.720995 102.707093 C 54.681032 106.522035 53.769365 110.314612 52.985994 114.084826 C 52.202412 117.86355 51.725221 121.649878 51.562296 125.469554 L 51.434634 125.466386 C 51.431863 126.607471 51.41207 127.748135 51.367167 128.871143 C 51.322265 129.994151 51.303106 131.109282 51.300757 132.233346 L 38.81705 131.855399 C 39.072514 123.277532 39.192649 114.662242 39.194266 106.018463 C 39.195884 97.374683 39.198979 88.671328 39.194621 79.925207 L 51.687833 79.920166 C 51.685546 81.384874 51.683049 82.858094 51.688851 84.340036 C 51.880313 84.174466 51.976256 84.08317 51.976256 84.08317 C 52.568511 83.552839 53.253118 83.075897 54.038587 82.652555 C 55.607837 81.873957 57.213304 81.351739 58.871799 81.094837 C 59.736462 80.91191 60.650079 80.815359 61.603926 80.813483 C 62.557774 80.811607 63.508241 80.945905 64.463629 81.225098 C 65.419651 81.478758 66.330584 81.833492 67.19685 82.272279 C 67.618379 82.444546 68.004808 82.658522 68.339116 82.913785 C 68.699168 83.161171 69.050286 83.425367 69.392472 83.706374 C 70.086832 84.209023 70.711415 84.778069 71.266856 85.387979 C 71.83974 85.98129 72.386881 86.582479 72.916578 87.200266 C 73.703625 88.429082 74.403663 89.732383 75.016692 91.11017 C 75.521191 92.400102 75.924195 93.661967 76.225701 94.895765 C 76.536564 96.095731 76.787217 97.319751 76.952551 98.550169 L 77.078437 99.311225 L 77.20882 100.234197 L 77.332084 101.787182 C 77.421541 102.300367 77.485465 102.812918 77.523434 103.341858 C 77.569703 103.879519 77.642138 104.392281 77.748617 104.905888 C 77.8337 105.938446 77.918361 106.988024 78.002811 108.046114 C 78.087683 109.087182 78.172555 110.12825 78.257638 111.160807 Z M 78.257638 111.160807 " stroke="#004873" stroke-width="9.7641" stroke-opacity="1" stroke-miterlimit="4"/><g fill="#4eade5" fill-opacity="1"><g transform="translate(46.259524, 76.974079)"><g><path d="M 7.96875 -23.515625 C 8.070312 -20.804688 8.210938 -18.097656 8.390625 -15.390625 C 8.578125 -12.679688 8.789062 -9.976562 9.03125 -7.28125 L 3.296875 -6.84375 C 3.066406 -9.539062 2.859375 -12.265625 2.671875 -15.015625 C 2.492188 -17.765625 2.347656 -20.503906 2.234375 -23.234375 Z M 5.015625 -26.40625 C 4.140625 -26.34375 3.375 -26.613281 2.71875 -27.21875 C 2.070312 -27.820312 1.71875 -28.5625 1.65625 -29.4375 C 1.59375 -30.3125 1.863281 -31.070312 2.46875 -31.71875 C 3.070312 -32.375 3.8125 -32.734375 4.6875 -32.796875 C 5.5625 -32.859375 6.332031 -32.585938 7 -31.984375 C 7.675781 -31.378906 8.023438 -30.640625 8.046875 -29.765625 C 8.109375 -28.890625 7.835938 -28.125 7.234375 -27.46875 C 6.628906 -26.820312 5.890625 -26.46875 5.015625 -26.40625 Z M 5.015625 -26.40625 "/></g></g></g><g fill="#4eade5" fill-opacity="1"><g transform="translate(58.440149, 76.671783)"><g><path d="M 20.0625 -17.421875 C 20.238281 -15.503906 20.359375 -13.597656 20.421875 -11.703125 C 20.492188 -9.816406 20.566406 -7.941406 20.640625 -6.078125 L 14.90625 -5.8125 C 14.832031 -7.71875 14.757812 -9.585938 14.6875 -11.421875 C 14.625 -13.253906 14.507812 -15.082031 14.34375 -16.90625 C 14.289062 -17.34375 14.238281 -17.789062 14.1875 -18.25 C 14.144531 -18.707031 14.09375 -19.15625 14.03125 -19.59375 C 14.03125 -19.832031 14.015625 -20.0625 13.984375 -20.28125 C 13.960938 -20.5 13.925781 -20.726562 13.875 -20.96875 L 13.8125 -21.625 L 13.75 -21.921875 L 13.671875 -22.21875 C 13.523438 -23.007812 13.347656 -23.679688 13.140625 -24.234375 C 12.890625 -24.691406 12.625 -25.019531 12.34375 -25.21875 C 12.300781 -25.25 12.25 -25.285156 12.1875 -25.328125 C 12.125 -25.367188 12.113281 -25.390625 12.15625 -25.390625 C 12.113281 -25.390625 12.035156 -25.390625 11.921875 -25.390625 C 11.796875 -25.347656 11.65625 -25.28125 11.5 -25.1875 C 11.425781 -25.144531 11.351562 -25.109375 11.28125 -25.078125 C 11.238281 -25.035156 11.175781 -24.972656 11.09375 -24.890625 C 10.789062 -24.535156 10.523438 -24.050781 10.296875 -23.4375 C 10.179688 -23.125 10.070312 -22.769531 9.96875 -22.375 L 9.640625 -21.03125 C 9.203125 -19.269531 8.820312 -17.519531 8.5 -15.78125 C 8.1875 -14.039062 8.019531 -12.289062 8 -10.53125 L 7.9375 -10.53125 C 7.945312 -10.019531 7.945312 -9.503906 7.9375 -8.984375 C 7.925781 -8.460938 7.929688 -7.945312 7.953125 -7.4375 L 2.203125 -7.46875 C 2.222656 -11.414062 2.179688 -15.363281 2.078125 -19.3125 C 1.984375 -23.269531 1.882812 -27.257812 1.78125 -31.28125 L 7.515625 -31.421875 C 7.535156 -30.742188 7.554688 -30.066406 7.578125 -29.390625 C 7.648438 -29.472656 7.6875 -29.515625 7.6875 -29.515625 C 7.96875 -29.765625 8.28125 -29.992188 8.625 -30.203125 C 9.34375 -30.585938 10.078125 -30.84375 10.828125 -30.96875 C 11.222656 -31.0625 11.640625 -31.113281 12.078125 -31.125 C 12.515625 -31.132812 12.953125 -31.082031 13.390625 -30.96875 C 13.835938 -30.875 14.257812 -30.726562 14.65625 -30.53125 C 14.851562 -30.457031 15.035156 -30.363281 15.203125 -30.25 C 15.367188 -30.132812 15.53125 -30.019531 15.6875 -29.90625 C 16.019531 -29.675781 16.316406 -29.421875 16.578125 -29.140625 C 16.847656 -28.867188 17.109375 -28.597656 17.359375 -28.328125 C 17.722656 -27.773438 18.054688 -27.1875 18.359375 -26.5625 C 18.609375 -25.96875 18.804688 -25.394531 18.953125 -24.84375 C 19.109375 -24.289062 19.234375 -23.742188 19.328125 -23.203125 L 19.40625 -22.84375 L 19.46875 -22.421875 L 19.546875 -21.703125 C 19.585938 -21.460938 19.617188 -21.222656 19.640625 -20.984375 C 19.671875 -20.742188 19.710938 -20.503906 19.765625 -20.265625 C 19.816406 -19.796875 19.863281 -19.320312 19.90625 -18.84375 C 19.957031 -18.363281 20.007812 -17.890625 20.0625 -17.421875 Z M 20.0625 -17.421875 "/></g></g></g><g clip-path="url(#194dc62184)"><path stroke-linecap="butt" transform="matrix(0.430775, 0, 0, 0.430775, 108.020644, 11.634464)" fill="none" stroke-linejoin="miter" d="M 56.164319 62.891492 C 56.345678 68.087429 56.436358 73.219891 56.436358 78.297945 C 56.436358 83.375999 56.436358 88.463121 56.436358 93.55931 C 56.436358 98.637364 56.409154 103.75169 56.363814 108.902288 C 56.318475 114.025681 56.300339 119.121871 56.300339 124.199925 L 56.164319 127.926854 C 56.164319 128.579746 56.164319 129.232639 56.164319 129.885532 C 56.164319 130.538424 56.164319 131.227589 56.164319 131.953025 C 56.07364 133.34949 55.98296 134.745955 55.892281 136.151488 C 55.801601 137.529816 55.611174 138.989757 55.311932 140.549445 C 55.221252 140.930299 55.130573 141.302085 55.039893 141.664803 C 54.958282 142.027521 54.867602 142.399307 54.776923 142.780161 L 54.504884 143.904588 L 54.060554 145.119693 C 53.969875 145.500547 53.833855 145.890469 53.652496 146.271324 C 53.480205 146.634042 53.344186 147.0421 53.253506 147.486429 L 52.537138 148.610855 C 52.355779 148.964506 52.17442 149.336292 51.993061 149.726214 L 51.322032 150.8053 L 50.469645 151.920658 L 50.070655 152.464736 L 49.626325 153.045085 L 48.819277 154.160443 C 48.547239 154.341802 48.175452 154.65918 47.694851 155.10351 L 47.295861 155.54784 C 47.205181 155.638519 46.960347 155.819878 46.579493 156.091917 C 46.035415 156.445567 45.52761 156.781081 45.056076 157.071256 C 44.602679 157.343295 44.140213 157.569993 43.66868 157.751353 C 42.834428 158.132207 41.972972 158.458653 41.093381 158.730691 C 40.240993 159.00273 39.388606 159.229429 38.554354 159.40172 C 36.97653 159.700962 35.308027 159.89139 33.548844 159.982069 C 31.989156 159.982069 30.356924 159.836982 28.643081 159.537739 C 26.92017 159.274769 25.23353 158.812303 23.565027 158.150342 C 21.715164 157.524654 20.101069 156.65413 18.72274 155.54784 C 17.054236 154.332734 15.66684 152.890929 14.560549 151.24963 C 13.454259 149.581126 12.620007 147.731264 12.048726 145.700042 C 11.776688 144.775111 11.604396 143.841112 11.513717 142.916181 C 11.423037 141.99125 11.377698 141.111658 11.377698 140.277406 L 24.680385 140.277406 C 24.680385 141.111658 24.771065 141.755483 24.952424 142.20888 C 25.133783 142.771093 25.32421 143.278899 25.523705 143.732297 C 25.886423 144.113151 26.249141 144.484937 26.611859 144.847655 C 27.083393 145.237577 27.690946 145.564023 28.434518 145.826994 C 29.903526 146.371071 31.562962 146.64311 33.412824 146.64311 C 34.247076 146.55243 35.081328 146.461751 35.915579 146.371071 C 36.749831 146.189712 37.484335 145.963013 38.119092 145.700042 C 38.409267 145.518683 38.554354 145.428004 38.554354 145.428004 L 38.826393 145.119693 L 39.098431 144.847655 C 39.27979 144.666296 39.415809 144.530276 39.506489 144.439597 L 39.642508 144.303578 L 39.814799 144.040607 L 40.213789 143.596277 L 40.485828 143.0522 C 40.848546 142.399307 41.165924 141.637599 41.437963 140.758008 C 41.728138 139.869348 41.963904 138.980689 42.145263 138.082962 C 42.526118 136.024536 42.743748 133.821023 42.789088 131.481492 C 42.834428 129.105688 42.906972 126.639204 42.988583 124.063906 C 42.988583 123.229654 42.988583 122.413538 42.988583 121.624626 C 42.988583 120.835714 42.988583 120.028666 42.988583 119.185347 C 41.2294 120.40952 39.424877 121.379791 37.575015 122.105228 C 34.709542 123.229654 31.753389 123.60144 28.706557 123.220586 C 26.947374 123.039227 25.378618 122.667441 24.000289 122.105228 C 22.603824 121.561151 21.307107 120.826646 20.110137 119.901715 C 18.913167 119.067463 17.852216 118.160668 16.927285 117.190397 C 16.002354 116.220126 15.122762 115.231719 14.288511 114.216108 C 12.792298 112.275566 11.540921 110.217141 10.52531 108.0499 C 9.509699 105.864523 8.684515 103.661011 8.058827 101.44843 C 7.405934 99.235849 6.879993 97.023269 6.499139 94.819756 C 6.136421 92.579971 5.909722 90.358323 5.819042 88.145742 C 5.556072 83.90194 5.483528 79.748817 5.619547 75.686374 C 5.755566 71.605795 5.773702 67.670303 5.683023 63.870831 L 18.994778 63.60786 C 19.085458 67.842595 19.058254 71.94131 18.922235 75.894937 C 18.786216 79.821361 18.858759 83.620834 19.130798 87.302423 C 19.221477 89.061606 19.393768 90.820788 19.665807 92.579971 C 19.965049 94.339154 20.336836 95.99859 20.781165 97.558278 C 21.796776 100.895285 23.193241 103.824234 24.952424 106.326989 C 25.877355 107.523959 26.802286 108.439822 27.727218 109.065511 C 28.108072 109.364753 28.525197 109.60052 28.978595 109.781879 C 29.159954 109.781879 29.341313 109.800015 29.522672 109.845355 C 29.722167 109.890694 29.912594 109.963238 30.093953 110.04485 C 31.109564 110.135529 32.079835 110.008578 33.004766 109.64586 C 34.020377 109.255938 35.035988 108.603045 36.051599 107.678114 C 36.88585 106.961746 37.720102 105.982407 38.554354 104.767301 C 39.189111 103.570331 39.832935 102.092255 40.485828 100.333072 C 41.682798 97.286239 42.562389 94.012708 43.124602 90.512478 C 43.124602 85.887822 43.124602 81.308505 43.124602 76.774529 C 43.124602 72.231484 43.033923 67.751915 42.861632 63.335822 Z M 56.164319 62.891492 " stroke="#78003a" stroke-width="10.400025" stroke-opacity="1" stroke-miterlimit="4"/></g><g fill="#f070ae" fill-opacity="1"><g transform="translate(108.020644, 80.12773)"><g><path d="M 24.1875 -41.390625 C 24.269531 -39.160156 24.3125 -36.953125 24.3125 -34.765625 C 24.3125 -32.578125 24.3125 -30.382812 24.3125 -28.1875 C 24.3125 -26 24.300781 -23.800781 24.28125 -21.59375 C 24.257812 -19.382812 24.25 -17.1875 24.25 -15 L 24.1875 -13.375 C 24.1875 -13.101562 24.1875 -12.828125 24.1875 -12.546875 C 24.1875 -12.265625 24.1875 -11.960938 24.1875 -11.640625 C 24.144531 -11.046875 24.101562 -10.445312 24.0625 -9.84375 C 24.03125 -9.25 23.953125 -8.613281 23.828125 -7.9375 C 23.796875 -7.78125 23.757812 -7.625 23.71875 -7.46875 C 23.675781 -7.3125 23.632812 -7.148438 23.59375 -6.984375 L 23.46875 -6.515625 L 23.296875 -5.96875 C 23.253906 -5.8125 23.191406 -5.648438 23.109375 -5.484375 C 23.035156 -5.328125 22.976562 -5.148438 22.9375 -4.953125 L 22.640625 -4.484375 C 22.554688 -4.316406 22.476562 -4.15625 22.40625 -4 L 22.109375 -3.53125 L 21.75 -3.046875 L 21.5625 -2.8125 L 21.390625 -2.5625 L 21.03125 -2.09375 C 20.90625 -2.007812 20.742188 -1.867188 20.546875 -1.671875 L 20.375 -1.5 C 20.332031 -1.457031 20.234375 -1.375 20.078125 -1.25 C 19.835938 -1.09375 19.613281 -0.953125 19.40625 -0.828125 C 19.207031 -0.710938 19.007812 -0.613281 18.8125 -0.53125 C 18.457031 -0.375 18.085938 -0.234375 17.703125 -0.109375 C 17.328125 0.00390625 16.960938 0.0976562 16.609375 0.171875 C 15.929688 0.296875 15.210938 0.378906 14.453125 0.421875 C 13.773438 0.421875 13.066406 0.359375 12.328125 0.234375 C 11.597656 0.117188 10.875 -0.078125 10.15625 -0.359375 C 9.351562 -0.640625 8.65625 -1.019531 8.0625 -1.5 C 7.34375 -2.007812 6.742188 -2.625 6.265625 -3.34375 C 5.796875 -4.0625 5.441406 -4.859375 5.203125 -5.734375 C 5.078125 -6.128906 4.992188 -6.523438 4.953125 -6.921875 C 4.910156 -7.328125 4.890625 -7.707031 4.890625 -8.0625 L 10.625 -8.0625 C 10.625 -7.707031 10.664062 -7.429688 10.75 -7.234375 C 10.832031 -6.992188 10.910156 -6.773438 10.984375 -6.578125 C 11.148438 -6.410156 11.3125 -6.25 11.46875 -6.09375 C 11.664062 -5.9375 11.925781 -5.796875 12.25 -5.671875 C 12.882812 -5.429688 13.597656 -5.3125 14.390625 -5.3125 C 14.753906 -5.351562 15.113281 -5.394531 15.46875 -5.4375 C 15.832031 -5.519531 16.148438 -5.617188 16.421875 -5.734375 C 16.546875 -5.816406 16.609375 -5.859375 16.609375 -5.859375 L 16.84375 -6.09375 C 16.925781 -6.175781 16.988281 -6.234375 17.03125 -6.265625 L 17.078125 -6.328125 L 17.140625 -6.453125 L 17.328125 -6.625 L 17.4375 -6.875 C 17.601562 -7.144531 17.742188 -7.46875 17.859375 -7.84375 C 17.984375 -8.226562 18.082031 -8.617188 18.15625 -9.015625 C 18.3125 -9.890625 18.398438 -10.832031 18.421875 -11.84375 C 18.441406 -12.863281 18.472656 -13.929688 18.515625 -15.046875 C 18.515625 -15.410156 18.515625 -15.757812 18.515625 -16.09375 C 18.515625 -16.4375 18.515625 -16.785156 18.515625 -17.140625 C 17.753906 -16.628906 16.976562 -16.210938 16.1875 -15.890625 C 14.957031 -15.410156 13.679688 -15.25 12.359375 -15.40625 C 11.609375 -15.488281 10.929688 -15.648438 10.328125 -15.890625 C 9.734375 -16.128906 9.175781 -16.445312 8.65625 -16.84375 C 8.144531 -17.195312 7.6875 -17.582031 7.28125 -18 C 6.882812 -18.425781 6.507812 -18.859375 6.15625 -19.296875 C 5.519531 -20.128906 4.976562 -21.015625 4.53125 -21.953125 C 4.09375 -22.890625 3.738281 -23.835938 3.46875 -24.796875 C 3.1875 -25.742188 2.960938 -26.695312 2.796875 -27.65625 C 2.640625 -28.613281 2.546875 -29.570312 2.515625 -30.53125 C 2.390625 -32.351562 2.359375 -34.140625 2.421875 -35.890625 C 2.484375 -37.648438 2.492188 -39.347656 2.453125 -40.984375 L 8.1875 -41.09375 C 8.226562 -39.257812 8.21875 -37.492188 8.15625 -35.796875 C 8.09375 -34.109375 8.125 -32.46875 8.25 -30.875 C 8.28125 -30.125 8.351562 -29.367188 8.46875 -28.609375 C 8.59375 -27.859375 8.753906 -27.144531 8.953125 -26.46875 C 9.398438 -25.03125 10 -23.773438 10.75 -22.703125 C 11.144531 -22.179688 11.546875 -21.78125 11.953125 -21.5 C 12.109375 -21.382812 12.285156 -21.285156 12.484375 -21.203125 C 12.566406 -21.203125 12.644531 -21.191406 12.71875 -21.171875 C 12.800781 -21.148438 12.882812 -21.125 12.96875 -21.09375 C 13.40625 -21.050781 13.820312 -21.109375 14.21875 -21.265625 C 14.65625 -21.421875 15.09375 -21.703125 15.53125 -22.109375 C 15.882812 -22.421875 16.242188 -22.835938 16.609375 -23.359375 C 16.890625 -23.867188 17.164062 -24.503906 17.4375 -25.265625 C 17.957031 -26.578125 18.335938 -27.992188 18.578125 -29.515625 C 18.578125 -31.503906 18.578125 -33.472656 18.578125 -35.421875 C 18.578125 -37.367188 18.535156 -39.300781 18.453125 -41.21875 Z M 24.1875 -41.390625 "/></g></g></g><path stroke-linecap="butt" transform="matrix(0.458502, 0.0174017, -0.0174017, 0.458502, 134.334107, 10.266632)" fill="none" stroke-linejoin="miter" d="M 58.435948 102.707181 C 58.880097 105.65514 58.797437 108.640132 58.179784 111.670988 C 57.56418 114.531374 56.47357 117.222357 54.907954 119.743938 C 53.272229 122.438572 51.243454 124.653986 48.804615 126.390829 C 46.286837 128.292539 43.463778 129.558347 40.351808 130.170593 C 38.780099 130.511391 37.234994 130.655229 35.70863 130.619444 C 34.207465 130.574184 32.710932 130.426512 31.227218 130.167599 C 29.743825 129.917194 28.305343 129.503212 26.903585 128.934484 C 25.527026 128.35628 24.196345 127.640021 22.902388 126.769016 C 20.209159 124.945806 18.043286 122.651044 16.387432 119.876867 C 14.823109 117.269608 13.869489 114.366544 13.526571 111.167675 C 13.359472 109.68309 13.338288 108.227045 13.463344 106.808047 C 13.587754 105.372035 13.780868 103.950454 14.034502 102.552136 C 14.309025 101.255259 14.684345 99.920479 15.151954 98.548117 C 15.635609 97.149588 16.216719 95.849595 16.894962 94.639631 C 18.467907 91.862185 20.425394 89.564279 22.775608 87.737085 C 23.643693 87.039611 24.458039 86.497528 25.218968 86.119346 C 26.00445 85.714672 26.792838 85.386565 27.575625 85.135346 C 28.97299 84.69041 30.459302 84.344334 32.025732 84.088932 C 34.712547 83.722851 37.490134 83.728187 40.349341 84.088247 C 41.136213 84.169138 41.865148 84.294825 42.544654 84.464985 C 43.411643 84.63655 44.195497 84.862388 44.895892 85.133991 C 46.46058 85.730614 47.89561 86.50255 49.184287 87.458951 C 50.503443 88.32048 51.719106 89.373368 52.83914 90.600277 C 53.372827 91.193432 53.8489 91.839891 54.275867 92.539332 C 54.52731 92.879092 54.734926 93.186437 54.90722 93.461044 L 55.449836 94.513918 C 56.907873 97.014456 57.90608 99.745436 58.435948 102.707181 Z M 45.940599 109.068455 C 46.285554 107.607034 46.32489 106.17425 46.075946 104.777967 C 45.820544 103.211537 45.341902 101.823971 44.64002 100.61527 C 44.115921 99.825801 43.719965 99.270016 43.468522 98.930257 C 43.039505 98.401286 42.605533 97.966218 42.166606 97.625055 C 41.628819 97.372839 41.115908 97.102639 40.602998 96.83244 C 40.352733 96.748223 40.042595 96.657759 39.681735 96.577739 C 39.681735 96.577739 39.553802 96.574075 39.29826 96.575254 C 39.218465 96.493087 39.046381 96.448501 38.790838 96.44968 C 37.054809 96.27702 35.35959 96.281722 33.704535 96.446772 C 32.92735 96.621102 32.226407 96.784018 31.611184 96.96072 C 31.183768 97.147334 30.849932 97.330396 30.592339 97.502045 C 28.409043 99.237708 26.972328 101.788475 26.273687 105.154668 C 25.936158 106.811758 25.849007 108.331552 26.021385 109.730742 C 26.187839 111.198313 26.577856 112.495526 27.192082 113.639398 C 28.589389 115.886653 30.765188 117.320561 33.710647 117.932935 C 36.570065 118.523017 39.123458 118.008647 41.37018 116.372812 C 42.513195 115.51155 43.478637 114.461078 44.258322 113.230224 C 45.126098 111.851195 45.686965 110.466774 45.940599 109.068455 Z M 109.064662 102.174342 C 109.154003 104.079338 109.126823 106.056913 109.000462 108.114929 C 108.873132 110.147423 108.685282 112.156656 108.428728 114.151456 C 108.26362 115.188593 108.055976 116.227343 107.831318 117.26674 C 107.615167 118.305813 107.341401 119.398191 107.001515 120.544196 C 106.638366 121.75072 106.205545 122.917292 105.69422 124.035725 C 105.424667 124.56565 105.114191 125.139726 104.779485 125.7488 C 104.435949 126.34969 104.048261 126.909658 103.599731 127.437856 C 102.730775 128.561343 101.73852 129.578755 100.614457 130.490414 C 99.490393 131.402074 98.352011 132.160925 97.20814 132.775151 C 96.873981 132.949706 96.547039 133.089908 96.22828 133.22128 C 95.926537 133.352006 95.657854 133.455919 95.397033 133.542495 L 94.3475 133.94867 C 94.262427 133.951899 94.135463 133.973757 93.966608 134.014244 C 93.797752 134.054731 93.629866 134.12074 93.462625 134.203763 C 92.231856 134.548661 90.842465 134.754745 89.2951 134.839032 C 86.33358 134.925873 83.499361 134.326316 80.809136 133.031207 C 78.399975 131.73395 76.323471 129.998089 74.579301 127.815115 C 72.844606 125.657341 71.629617 123.275372 70.925826 120.669531 L 70.673105 119.622694 L 70.542814 119.107944 C 70.458822 118.915182 70.419626 118.780356 70.416398 118.695282 L 70.161319 117.13736 C 70.167791 116.634459 70.115034 116.142325 70.003695 115.677973 C 69.925417 115.186808 69.837985 114.678952 69.749908 114.15408 C 69.325918 110.165967 69.160055 106.244733 69.24381 102.390701 C 69.326597 98.511147 69.455149 94.715053 69.628821 90.985402 L 82.117021 91.618979 C 81.948628 95.263233 81.838172 98.862691 81.794482 102.425536 C 81.758978 105.97955 81.899544 109.458726 82.241057 112.845079 C 82.241155 113.296613 82.282175 113.703997 82.373594 114.092428 C 82.473197 114.472029 82.531232 114.878767 82.53133 115.330301 L 82.780387 116.505071 C 82.783615 116.590144 82.786844 116.675217 82.781566 116.760614 L 82.905512 116.883703 C 82.911969 117.05385 82.908305 117.181783 82.911534 117.266856 C 83.160703 118.220112 83.638278 119.130622 84.335753 119.998707 C 84.953432 120.784624 85.692264 121.395552 86.561079 121.839674 C 87.238535 122.180305 88.020451 122.355098 88.88066 122.348009 C 89.076652 122.34909 89.280505 122.332834 89.491896 122.290733 C 89.703288 122.248631 89.930726 122.180362 90.191547 122.093787 C 90.191547 122.093787 90.234407 122.10068 90.310973 122.097774 C 90.396046 122.094545 90.445799 122.058578 90.44257 121.973505 L 90.855232 121.847088 C 91.025378 121.840631 91.152342 121.818773 91.236124 121.781515 C 91.319583 121.735749 91.444933 121.671355 91.620681 121.588008 C 92.489945 121.146077 93.183896 120.574485 93.71955 119.872589 C 93.883561 119.704492 94.139652 119.268793 94.479314 118.565815 C 94.67327 118.064318 94.847951 117.503915 95.020372 116.883961 C 95.269682 116.269608 95.465042 115.580627 95.589438 114.817662 C 95.721695 114.03736 95.877537 113.205046 96.066116 112.33741 C 96.489182 109.117989 96.660368 105.771815 96.579676 102.298886 C 96.490477 98.826281 96.319546 95.220464 96.067205 91.489943 L 108.562004 90.726057 C 108.725005 92.551581 108.855267 94.412427 108.936423 96.326253 C 109.025763 98.23125 109.065674 100.18072 109.064662 102.174342 Z M 150.193095 85.005497 L 150.863078 97.49534 C 148.424379 97.664573 146.125238 98.143734 143.96533 98.924316 C 142.925274 99.355691 141.930983 99.870524 140.974595 100.486154 C 140.532748 100.741472 140.058808 101.049126 139.544268 101.409438 L 139.009696 101.915343 L 138.373036 102.425123 C 136.634816 103.990541 135.329067 105.726977 134.464294 107.634107 C 133.591014 109.54156 133.157421 111.585678 133.155005 113.766783 L 133.035902 113.771304 C 133.11272 117.142144 133.239935 120.494033 133.409687 123.844307 C 133.57944 127.194581 133.749838 130.56187 133.921204 133.95468 L 121.430069 134.590634 C 120.566975 118.359502 119.957809 102.084654 119.619908 85.773952 L 132.108236 85.512967 C 132.110369 86.46708 132.129517 87.420547 132.174187 88.373045 C 132.21918 89.334051 132.238328 90.287517 132.240139 91.233123 C 133.017872 90.624273 133.723883 90.14594 134.332971 89.807598 C 135.98352 88.850398 137.673265 88.028023 139.384544 87.324105 C 142.777594 86.036664 146.377501 85.261066 150.193095 85.005497 Z M 150.193095 85.005497 " stroke="#78003a" stroke-width="9.7641" stroke-opacity="1" stroke-miterlimit="4"/><g fill="#f070ae" fill-opacity="1"><g transform="translate(135.51264, 78.267454)"><g><path d="M 23.828125 -19.890625 C 23.984375 -18.523438 23.890625 -17.15625 23.546875 -15.78125 C 23.222656 -14.46875 22.675781 -13.253906 21.90625 -12.140625 C 21.113281 -10.929688 20.144531 -9.957031 19 -9.21875 C 17.8125 -8.382812 16.492188 -7.851562 15.046875 -7.625 C 14.316406 -7.488281 13.601562 -7.441406 12.90625 -7.484375 C 12.21875 -7.535156 11.546875 -7.632812 10.890625 -7.78125 C 10.210938 -7.925781 9.554688 -8.140625 8.921875 -8.421875 C 8.296875 -8.703125 7.695312 -9.054688 7.125 -9.484375 C 5.914062 -10.347656 4.957031 -11.4375 4.25 -12.75 C 3.582031 -13.957031 3.195312 -15.304688 3.09375 -16.796875 C 3.03125 -17.472656 3.039062 -18.140625 3.125 -18.796875 C 3.21875 -19.453125 3.335938 -20.09375 3.484375 -20.71875 C 3.628906 -21.320312 3.820312 -21.9375 4.0625 -22.5625 C 4.300781 -23.1875 4.585938 -23.769531 4.921875 -24.3125 C 5.691406 -25.570312 6.628906 -26.597656 7.734375 -27.390625 C 8.140625 -27.691406 8.523438 -27.925781 8.890625 -28.09375 C 9.265625 -28.257812 9.632812 -28.394531 10 -28.5 C 10.644531 -28.675781 11.320312 -28.804688 12.03125 -28.890625 C 13.269531 -29.003906 14.539062 -28.957031 15.84375 -28.75 C 16.207031 -28.695312 16.546875 -28.628906 16.859375 -28.546875 C 17.253906 -28.441406 17.609375 -28.328125 17.921875 -28.203125 C 18.628906 -27.898438 19.269531 -27.515625 19.84375 -27.046875 C 20.4375 -26.617188 20.976562 -26.117188 21.46875 -25.546875 C 21.695312 -25.253906 21.90625 -24.953125 22.09375 -24.640625 C 22.207031 -24.460938 22.300781 -24.316406 22.375 -24.203125 L 22.609375 -23.703125 C 23.234375 -22.523438 23.640625 -21.253906 23.828125 -19.890625 Z M 17.984375 -17.1875 C 18.171875 -17.851562 18.210938 -18.507812 18.109375 -19.15625 C 18.023438 -19.875 17.832031 -20.519531 17.53125 -21.09375 C 17.3125 -21.457031 17.144531 -21.722656 17.03125 -21.890625 C 16.84375 -22.128906 16.648438 -22.335938 16.453125 -22.515625 C 16.222656 -22.640625 15.988281 -22.765625 15.75 -22.890625 C 15.625 -22.929688 15.484375 -22.976562 15.328125 -23.03125 C 15.328125 -23.03125 15.269531 -23.03125 15.15625 -23.03125 C 15.113281 -23.070312 15.03125 -23.097656 14.90625 -23.109375 C 14.125 -23.222656 13.347656 -23.253906 12.578125 -23.203125 C 12.222656 -23.128906 11.90625 -23.0625 11.625 -23 C 11.4375 -22.925781 11.28125 -22.847656 11.15625 -22.765625 C 10.125 -22.015625 9.421875 -20.867188 9.046875 -19.328125 C 8.859375 -18.566406 8.796875 -17.867188 8.859375 -17.234375 C 8.898438 -16.554688 9.050781 -15.953125 9.3125 -15.421875 C 9.914062 -14.367188 10.878906 -13.675781 12.203125 -13.34375 C 13.503906 -13.007812 14.691406 -13.203125 15.765625 -13.921875 C 16.304688 -14.296875 16.765625 -14.757812 17.140625 -15.3125 C 17.554688 -15.925781 17.835938 -16.550781 17.984375 -17.1875 Z M 17.984375 -17.1875 "/></g></g></g><g fill="#f070ae" fill-opacity="1"><g transform="translate(161.117102, 79.23923)"><g><path d="M 21.453125 -20.234375 C 21.460938 -19.359375 21.414062 -18.453125 21.3125 -17.515625 C 21.21875 -16.578125 21.097656 -15.65625 20.953125 -14.75 C 20.847656 -14.269531 20.734375 -13.789062 20.609375 -13.3125 C 20.492188 -12.84375 20.351562 -12.351562 20.1875 -11.84375 C 20 -11.289062 19.773438 -10.757812 19.515625 -10.25 C 19.390625 -10.019531 19.238281 -9.769531 19.0625 -9.5 C 18.894531 -9.226562 18.707031 -8.976562 18.5 -8.75 C 18.082031 -8.238281 17.609375 -7.785156 17.078125 -7.390625 C 16.546875 -6.992188 16.015625 -6.664062 15.484375 -6.40625 C 15.328125 -6.34375 15.175781 -6.28125 15.03125 -6.21875 C 14.882812 -6.164062 14.75 -6.117188 14.625 -6.078125 L 14.15625 -5.921875 C 14.113281 -5.921875 14.050781 -5.910156 13.96875 -5.890625 C 13.894531 -5.878906 13.8125 -5.851562 13.71875 -5.8125 C 13.15625 -5.675781 12.519531 -5.601562 11.8125 -5.59375 C 10.457031 -5.601562 9.175781 -5.929688 7.96875 -6.578125 C 6.875 -7.210938 5.945312 -8.046875 5.1875 -9.078125 C 4.425781 -10.085938 3.910156 -11.195312 3.640625 -12.40625 L 3.546875 -12.890625 L 3.484375 -13.140625 C 3.441406 -13.210938 3.425781 -13.269531 3.4375 -13.3125 L 3.34375 -14.03125 C 3.351562 -14.269531 3.34375 -14.5 3.3125 -14.71875 C 3.28125 -14.9375 3.25 -15.171875 3.21875 -15.421875 C 3.082031 -17.253906 3.066406 -19.054688 3.171875 -20.828125 C 3.285156 -22.597656 3.410156 -24.335938 3.546875 -26.046875 L 9.28125 -25.53125 C 9.144531 -23.863281 9.035156 -22.210938 8.953125 -20.578125 C 8.867188 -18.941406 8.875 -17.347656 8.96875 -15.796875 C 8.957031 -15.597656 8.96875 -15.40625 9 -15.21875 C 9.039062 -15.039062 9.054688 -14.851562 9.046875 -14.65625 L 9.15625 -14.109375 C 9.15625 -14.066406 9.15625 -14.03125 9.15625 -14 L 9.203125 -13.9375 C 9.191406 -13.851562 9.1875 -13.789062 9.1875 -13.75 C 9.300781 -13.3125 9.503906 -12.882812 9.796875 -12.46875 C 10.066406 -12.101562 10.394531 -11.8125 10.78125 -11.59375 C 11.09375 -11.425781 11.445312 -11.332031 11.84375 -11.3125 C 11.925781 -11.3125 12.015625 -11.316406 12.109375 -11.328125 C 12.210938 -11.347656 12.320312 -11.378906 12.4375 -11.421875 C 12.4375 -11.421875 12.457031 -11.421875 12.5 -11.421875 C 12.539062 -11.421875 12.5625 -11.441406 12.5625 -11.484375 L 12.75 -11.515625 C 12.820312 -11.515625 12.878906 -11.523438 12.921875 -11.546875 C 12.960938 -11.566406 13.019531 -11.59375 13.09375 -11.625 C 13.507812 -11.8125 13.84375 -12.0625 14.09375 -12.375 C 14.175781 -12.445312 14.304688 -12.640625 14.484375 -12.953125 C 14.566406 -13.191406 14.65625 -13.445312 14.75 -13.71875 C 14.875 -13.988281 14.972656 -14.300781 15.046875 -14.65625 C 15.117188 -15.019531 15.203125 -15.398438 15.296875 -15.796875 C 15.554688 -17.265625 15.695312 -18.796875 15.71875 -20.390625 C 15.738281 -21.984375 15.71875 -23.632812 15.65625 -25.34375 L 21.40625 -25.484375 C 21.457031 -24.648438 21.484375 -23.796875 21.484375 -22.921875 C 21.492188 -22.046875 21.484375 -21.148438 21.453125 -20.234375 Z M 21.453125 -20.234375 "/></g></g></g><g fill="#f070ae" fill-opacity="1"><g transform="translate(184.214836, 80.115868)"><g><path d="M 17.5 -28.265625 L 17.578125 -22.515625 C 16.460938 -22.484375 15.40625 -22.304688 14.40625 -21.984375 C 13.914062 -21.804688 13.445312 -21.582031 13 -21.3125 C 12.789062 -21.207031 12.566406 -21.082031 12.328125 -20.9375 L 12.078125 -20.703125 L 11.765625 -20.46875 C 10.953125 -19.78125 10.332031 -19.007812 9.90625 -18.15625 C 9.476562 -17.289062 9.242188 -16.359375 9.203125 -15.359375 L 9.140625 -15.359375 C 9.117188 -13.804688 9.117188 -12.265625 9.140625 -10.734375 C 9.160156 -9.210938 9.179688 -7.671875 9.203125 -6.109375 L 3.453125 -6.03125 C 3.335938 -13.488281 3.34375 -20.957031 3.46875 -28.4375 L 9.21875 -28.34375 C 9.195312 -27.90625 9.1875 -27.46875 9.1875 -27.03125 C 9.195312 -26.59375 9.191406 -26.15625 9.171875 -25.71875 C 9.535156 -25.988281 9.863281 -26.195312 10.15625 -26.34375 C 10.925781 -26.75 11.710938 -27.097656 12.515625 -27.390625 C 14.085938 -27.929688 15.75 -28.222656 17.5 -28.265625 Z M 17.5 -28.265625 "/></g></g></g><path stroke-linecap="butt" transform="matrix(0.430643, -0.0106876, 0.0106876, 0.430643, 80.167515, 8.988282)" fill="none" stroke-linejoin="miter" d="M 37.573291 66.105794 L 50.878091 66.916739 C 50.424672 73.490848 49.989159 80.074472 49.561811 86.694582 C 49.152819 93.306076 48.771696 99.89105 48.409154 106.458344 C 48.028932 113.007057 47.693811 119.56596 47.43121 126.126663 C 47.15932 132.696207 46.91575 139.221099 46.718856 145.692725 L 33.409622 145.425915 C 33.414505 144.86365 33.410099 144.310225 33.414532 143.76609 C 33.41035 143.2036 33.415234 142.641335 33.411277 142.06978 C 32.964384 142.167538 32.544912 142.256906 32.161701 142.347174 C 31.977473 142.460521 31.794819 142.510413 31.622356 142.515203 C 31.441053 142.510704 31.2584 142.560595 31.074847 142.646747 C 30.784537 142.648613 30.548168 142.669959 30.365515 142.719851 C 30.183086 142.760677 30.001108 142.783373 29.81958 142.787939 C 29.529495 142.780739 29.202924 142.781705 28.840092 142.781771 C 28.477261 142.781837 28.105364 142.781679 27.724403 142.781295 C 26.526901 142.787858 25.188182 142.636715 23.698729 142.345769 C 21.120266 141.71032 18.678165 140.697284 16.354519 139.297146 C 14.320508 137.922338 12.421734 136.215268 10.667037 134.185227 C 10.300024 133.622803 9.940726 133.114995 9.580078 132.661578 C 9.378779 132.366318 9.186094 132.089414 9.002475 131.812734 C 8.827696 131.545345 8.643852 131.277731 8.460233 131.001051 C 8.286129 130.706467 8.11225 130.402817 7.956726 130.090552 C 7.819558 129.769671 7.663809 129.466471 7.48064 129.171662 C 7.208103 128.45738 6.988382 127.807904 6.802672 127.249979 C 5.97323 124.852859 5.555545 122.311755 5.549617 119.626667 C 5.550505 117.032455 6.012815 114.485978 6.936774 111.978171 L 7.214221 111.032628 L 7.616331 110.180887 C 7.704667 109.910957 7.820198 109.641701 7.95386 109.372896 C 8.115392 109.07757 8.286664 108.755274 8.459061 108.387652 C 8.556462 108.117947 8.690123 107.849142 8.869111 107.581461 C 9.048773 107.286586 9.237276 107.001 9.443458 106.733995 C 9.53861 106.554941 9.718047 106.26913 9.990611 105.885853 L 10.663775 105.077121 C 12.331594 102.932463 14.514843 101.217851 17.195617 99.92377 C 19.592671 98.731496 22.132584 97.996306 24.815132 97.727263 C 28.42795 97.254539 31.989275 97.760177 35.507947 99.253468 C 35.781836 93.699898 36.10105 88.147453 36.456525 82.595908 C 36.839195 77.045037 37.21145 71.548333 37.573291 66.105794 Z M 34.121196 124.063826 C 34.214349 122.868799 34.280307 121.673098 34.328134 120.476946 C 34.367571 119.253374 34.442819 118.048833 34.526907 116.853581 C 34.352446 115.842398 34.063803 115.04608 33.687725 114.483431 C 33.318396 113.648827 32.773004 112.964057 32.024579 112.419379 C 30.261174 111.105711 28.323413 110.604083 26.202681 110.896139 C 23.901095 111.165566 22.137636 112.047017 20.921594 113.531652 C 20.919344 113.622304 20.871544 113.720895 20.787707 113.809522 C 20.694806 113.897924 20.601905 113.986326 20.518068 114.074953 C 20.515819 114.165604 20.468243 114.255131 20.375117 114.352598 C 20.29128 114.441225 20.197254 114.574953 20.111168 114.754231 C 19.929256 115.139759 19.84182 115.373428 19.83957 115.46408 L 19.566332 115.874553 L 19.393035 116.278436 C 19.038567 117.403482 18.855437 118.569063 18.852935 119.76634 C 18.852684 120.872964 19.035085 121.929698 19.399915 122.945605 C 19.395415 123.126908 19.498348 123.365302 19.699647 123.660562 C 19.704213 123.84209 19.746389 123.970127 19.834791 124.063028 C 19.932258 124.156155 19.975334 124.247931 19.973084 124.338583 C 20.061711 124.422419 20.150113 124.515321 20.24758 124.608447 C 20.336207 124.692283 20.378158 124.829386 20.382723 125.010914 C 20.559077 125.214847 20.743596 125.455266 20.918375 125.722655 C 22.593736 127.66002 24.486978 128.85899 26.607393 129.310727 C 27.176023 129.424618 27.637221 129.481417 28.000053 129.481351 C 28.090705 129.483601 28.199711 129.477235 28.335689 129.48061 C 28.489797 129.484435 28.616934 129.478519 28.707586 129.480769 C 28.707586 129.480769 28.798237 129.483019 28.979765 129.478453 C 29.070417 129.480703 29.115743 129.481828 29.115743 129.481828 C 29.115743 129.481828 29.161069 129.482953 29.25172 129.485202 C 29.993873 129.186145 30.73895 128.76924 31.487177 128.225423 C 32.319689 127.574849 32.964084 126.828899 33.411069 125.996413 C 33.685433 125.540614 33.867345 125.155086 33.956806 124.83983 C 34.064847 124.506894 34.125762 124.245354 34.121196 124.063826 Z M 34.121196 124.063826 " stroke="#004873" stroke-width="10.400025" stroke-opacity="1" stroke-miterlimit="4"/><g fill="#4eade5" fill-opacity="1"><g transform="translate(81.866842, 77.46046)"><g><path d="M 15.1875 -40.40625 L 20.9375 -40.1875 C 20.8125 -37.351562 20.691406 -34.507812 20.578125 -31.65625 C 20.472656 -28.800781 20.375 -25.96875 20.28125 -23.15625 C 20.195312 -20.320312 20.128906 -17.488281 20.078125 -14.65625 C 20.023438 -11.832031 19.992188 -9.023438 19.984375 -6.234375 L 14.25 -6.21875 C 14.238281 -6.457031 14.226562 -6.691406 14.21875 -6.921875 C 14.21875 -7.160156 14.210938 -7.398438 14.203125 -7.640625 C 14.015625 -7.597656 13.84375 -7.554688 13.6875 -7.515625 C 13.601562 -7.472656 13.519531 -7.445312 13.4375 -7.4375 C 13.363281 -7.4375 13.285156 -7.414062 13.203125 -7.375 C 13.085938 -7.375 12.988281 -7.363281 12.90625 -7.34375 C 12.832031 -7.320312 12.753906 -7.304688 12.671875 -7.296875 C 12.546875 -7.296875 12.40625 -7.289062 12.25 -7.28125 C 12.09375 -7.28125 11.9375 -7.28125 11.78125 -7.28125 C 11.257812 -7.269531 10.679688 -7.316406 10.046875 -7.421875 C 8.921875 -7.679688 7.851562 -8.09375 6.84375 -8.65625 C 5.945312 -9.226562 5.109375 -9.941406 4.328125 -10.796875 C 4.160156 -11.035156 4 -11.253906 3.84375 -11.453125 C 3.757812 -11.566406 3.675781 -11.679688 3.59375 -11.796875 C 3.507812 -11.921875 3.425781 -12.039062 3.34375 -12.15625 C 3.269531 -12.28125 3.195312 -12.40625 3.125 -12.53125 C 3.0625 -12.664062 2.988281 -12.796875 2.90625 -12.921875 C 2.78125 -13.242188 2.671875 -13.519531 2.578125 -13.75 C 2.203125 -14.78125 2 -15.875 1.96875 -17.03125 C 1.9375 -18.144531 2.109375 -19.242188 2.484375 -20.328125 L 2.59375 -20.75 L 2.765625 -21.109375 C 2.796875 -21.222656 2.84375 -21.34375 2.90625 -21.46875 C 2.96875 -21.59375 3.03125 -21.734375 3.09375 -21.890625 C 3.132812 -22.015625 3.191406 -22.132812 3.265625 -22.25 C 3.347656 -22.375 3.425781 -22.492188 3.5 -22.609375 C 3.539062 -22.703125 3.617188 -22.828125 3.734375 -22.984375 L 4.015625 -23.34375 C 4.710938 -24.269531 5.632812 -25.03125 6.78125 -25.625 C 7.789062 -26.15625 8.875 -26.5 10.03125 -26.65625 C 11.582031 -26.894531 13.125 -26.710938 14.65625 -26.109375 C 14.707031 -28.503906 14.785156 -30.894531 14.890625 -33.28125 C 14.992188 -35.675781 15.09375 -38.050781 15.1875 -40.40625 Z M 14.3125 -15.40625 C 14.34375 -15.925781 14.359375 -16.445312 14.359375 -16.96875 C 14.367188 -17.488281 14.390625 -18.007812 14.421875 -18.53125 C 14.328125 -18.957031 14.203125 -19.289062 14.046875 -19.53125 C 13.878906 -19.894531 13.628906 -20.191406 13.296875 -20.421875 C 12.523438 -20.953125 11.6875 -21.148438 10.78125 -21.015625 C 9.78125 -20.867188 9.03125 -20.46875 8.53125 -19.8125 C 8.53125 -19.769531 8.507812 -19.726562 8.46875 -19.6875 C 8.4375 -19.644531 8.398438 -19.609375 8.359375 -19.578125 C 8.359375 -19.535156 8.335938 -19.492188 8.296875 -19.453125 C 8.265625 -19.410156 8.226562 -19.351562 8.1875 -19.28125 C 8.113281 -19.113281 8.078125 -19.007812 8.078125 -18.96875 L 7.96875 -18.78125 L 7.90625 -18.59375 C 7.757812 -18.125 7.691406 -17.628906 7.703125 -17.109375 C 7.710938 -16.628906 7.800781 -16.171875 7.96875 -15.734375 C 7.976562 -15.648438 8.023438 -15.550781 8.109375 -15.4375 C 8.109375 -15.351562 8.128906 -15.296875 8.171875 -15.265625 C 8.210938 -15.234375 8.234375 -15.195312 8.234375 -15.15625 C 8.265625 -15.113281 8.300781 -15.070312 8.34375 -15.03125 C 8.394531 -14.988281 8.421875 -14.929688 8.421875 -14.859375 C 8.503906 -14.773438 8.582031 -14.675781 8.65625 -14.5625 C 9.394531 -13.738281 10.226562 -13.238281 11.15625 -13.0625 C 11.394531 -13.03125 11.59375 -13.015625 11.75 -13.015625 C 11.789062 -13.015625 11.84375 -13.015625 11.90625 -13.015625 C 11.96875 -13.023438 12.015625 -13.03125 12.046875 -13.03125 C 12.046875 -13.03125 12.085938 -13.03125 12.171875 -13.03125 C 12.210938 -13.03125 12.234375 -13.03125 12.234375 -13.03125 C 12.234375 -13.03125 12.253906 -13.03125 12.296875 -13.03125 C 12.609375 -13.164062 12.921875 -13.359375 13.234375 -13.609375 C 13.578125 -13.878906 13.84375 -14.203125 14.03125 -14.578125 C 14.15625 -14.773438 14.234375 -14.941406 14.265625 -15.078125 C 14.296875 -15.222656 14.3125 -15.332031 14.3125 -15.40625 Z M 14.3125 -15.40625 "/></g></g></g></svg>