<svg xmlns="http://www.w3.org/2000/svg" xmlns:xlink="http://www.w3.org/1999/xlink" width="220" zoomAndPan="magnify" viewBox="0 0 165 132.749998" height="177" preserveAspectRatio="xMidYMid meet" version="1.0"><defs><g/><clipPath id="a10bfa3501"><path d="M 65 8 L 164.84375 8 L 164.84375 132.5 L 65 132.5 Z M 65 8 " clip-rule="nonzero"/></clipPath><clipPath id="537bebecca"><path d="M 0.15625 10 L 92 10 L 92 132.5 L 0.15625 132.5 Z M 0.15625 10 " clip-rule="nonzero"/></clipPath><clipPath id="f6eed2037c"><path d="M 28 14 L 126 14 L 126 132.5 L 28 132.5 Z M 28 14 " clip-rule="nonzero"/></clipPath></defs><g clip-path="url(#a10bfa3501)"><path stroke-linecap="butt" transform="matrix(0.575321, 0, 0, 0.575321, 94.216786, 7.977812)" fill="none" stroke-linejoin="miter" d="M 79.266163 59.169909 L 92.302353 61.946889 C 90.835782 69.143952 89.403159 76.334225 88.004485 83.510919 C 86.626179 90.660455 85.247874 97.850728 83.869568 105.07495 C 82.470893 112.272013 81.126536 119.482656 79.843286 126.706878 L 77.745275 138.758564 L 75.817005 149.554158 L 74.017739 160.662079 L 61.531513 162.454555 C 61.164871 161.823114 60.818597 161.110198 60.479113 160.322595 C 60.159998 159.528202 59.868041 158.760968 59.596454 158.020892 L 58.482946 155.685242 C 58.39468 155.50192 58.258887 155.128488 58.075565 154.564944 L 57.498442 153.179849 L 55.570172 148.03327 C 55.298585 147.103083 55.020208 146.193266 54.721462 145.290238 C 54.456665 144.366841 54.13755 143.484183 53.777696 142.649052 L 52.928986 139.872072 C 52.752454 139.396794 52.589502 138.935095 52.453708 138.486976 C 52.317915 138.011699 52.20928 137.685794 52.114224 137.502473 L 51.272304 134.725492 L 49.615621 129.178322 C 49.045288 127.324739 48.481744 125.484735 47.918201 123.65831 C 47.375026 121.804727 46.838641 119.957934 46.295467 118.10435 L 46.125724 117.798815 L 43.925867 125.314993 L 42.669776 129.612862 L 40.164383 137.366679 L 37.563935 145.833413 L 34.922749 154.021769 L 28.384285 153.852027 L 22.022353 153.58044 L 21.173642 149.995488 L 20.36567 146.369798 C 20.073714 145.086548 19.788547 143.844036 19.51696 142.649052 C 19.245373 141.433699 18.966996 140.177607 18.66825 138.894357 L 17.147361 131.412128 L 16.067801 126.265548 C 15.137615 121.0986 14.261746 115.97239 13.426615 110.893708 C 12.591484 105.706391 11.844619 100.525863 11.192809 95.358915 C 10.554579 90.191967 9.957087 84.963911 9.393544 79.681539 L 22.701321 78.432237 C 23.176599 83.531288 23.726563 88.596391 24.358003 93.627546 C 25.009813 98.66549 25.756678 103.717014 26.591809 108.795696 C 27.42694 113.894747 28.309598 118.898743 29.232995 123.794104 L 29.640376 126.265548 L 31.161265 121.424505 L 34.074039 111.70847 L 36.443638 103.112732 L 38.915082 94.510205 L 45.175169 93.96703 L 51.408097 93.559649 L 52.385812 95.902089 C 52.480867 96.09899 52.569133 96.295891 52.657399 96.472423 C 52.752454 96.655744 52.84072 96.832276 52.928986 97.015597 L 53.336367 98.400693 L 55.434379 103.547272 C 55.522645 103.913915 55.658438 104.328085 55.84176 104.803363 C 56.025081 105.251482 56.154085 105.706391 56.249141 106.15451 L 58.075565 111.572676 L 58.61874 112.957771 L 58.890327 114.078069 C 59.542137 116.019918 60.139629 117.914239 60.682803 119.767823 C 61.246347 121.614616 61.80989 123.468199 62.373434 125.314993 L 65.01462 134.053314 L 66.807097 124.337279 C 68.097136 116.929735 69.380386 109.678355 70.670426 102.569557 C 72.0691 95.345336 73.481354 88.134693 74.900398 80.93763 C 76.3466 73.713408 77.799592 66.455238 79.266163 59.169909 Z M 79.266163 59.169909 " stroke="#7e5600" stroke-width="10.400025" stroke-opacity="1" stroke-miterlimit="4"/></g><g fill="#fcc95d" fill-opacity="1"><g transform="translate(97.947387, 99.453927)"><g><path d="M 41.890625 -57.4375 L 49.390625 -55.84375 C 48.535156 -51.695312 47.707031 -47.5625 46.90625 -43.4375 C 46.113281 -39.320312 45.316406 -35.1875 44.515625 -31.03125 C 43.722656 -26.882812 42.953125 -22.738281 42.203125 -18.59375 L 41 -11.640625 L 39.890625 -5.421875 L 38.859375 0.953125 L 31.671875 2 C 31.460938 1.625 31.265625 1.207031 31.078125 0.75 C 30.890625 0.300781 30.71875 -0.132812 30.5625 -0.5625 L 29.921875 -1.921875 C 29.867188 -2.023438 29.785156 -2.234375 29.671875 -2.546875 L 29.359375 -3.34375 L 28.25 -6.296875 C 28.082031 -6.828125 27.921875 -7.359375 27.765625 -7.890625 C 27.609375 -8.429688 27.421875 -8.941406 27.203125 -9.421875 L 26.734375 -11.015625 C 26.617188 -11.273438 26.519531 -11.535156 26.4375 -11.796875 C 26.363281 -12.066406 26.300781 -12.253906 26.25 -12.359375 L 25.765625 -13.96875 L 24.8125 -17.15625 C 24.488281 -18.21875 24.164062 -19.28125 23.84375 -20.34375 C 23.53125 -21.40625 23.210938 -22.46875 22.890625 -23.53125 L 22.8125 -23.6875 L 21.546875 -19.390625 L 20.828125 -16.90625 L 19.390625 -12.453125 L 17.875 -7.578125 L 16.359375 -2.875 L 12.609375 -2.953125 L 8.9375 -3.109375 L 8.453125 -5.1875 L 7.984375 -7.265625 C 7.816406 -8.003906 7.65625 -8.71875 7.5 -9.40625 C 7.34375 -10.101562 7.179688 -10.820312 7.015625 -11.5625 L 6.140625 -15.875 L 5.5 -18.828125 C 4.96875 -21.804688 4.460938 -24.757812 3.984375 -27.6875 C 3.503906 -30.664062 3.078125 -33.644531 2.703125 -36.625 C 2.335938 -39.601562 1.992188 -42.609375 1.671875 -45.640625 L 9.328125 -46.359375 C 9.597656 -43.429688 9.914062 -40.515625 10.28125 -37.609375 C 10.65625 -34.710938 11.082031 -31.800781 11.5625 -28.875 C 12.039062 -25.957031 12.546875 -23.085938 13.078125 -20.265625 L 13.328125 -18.828125 L 14.203125 -21.625 L 15.875 -27.203125 L 17.234375 -32.15625 L 18.671875 -37.09375 L 22.265625 -37.421875 L 25.84375 -37.65625 L 26.40625 -36.296875 C 26.457031 -36.191406 26.507812 -36.085938 26.5625 -35.984375 C 26.613281 -35.878906 26.671875 -35.769531 26.734375 -35.65625 L 26.96875 -34.859375 L 28.15625 -31.90625 C 28.21875 -31.695312 28.300781 -31.457031 28.40625 -31.1875 C 28.507812 -30.925781 28.585938 -30.660156 28.640625 -30.390625 L 29.671875 -27.28125 L 30 -26.484375 L 30.15625 -25.84375 C 30.53125 -24.726562 30.875 -23.640625 31.1875 -22.578125 C 31.507812 -21.515625 31.832031 -20.453125 32.15625 -19.390625 L 33.671875 -14.359375 L 34.703125 -19.953125 C 35.453125 -24.203125 36.195312 -28.375 36.9375 -32.46875 C 37.738281 -36.613281 38.550781 -40.757812 39.375 -44.90625 C 40.195312 -49.0625 41.035156 -53.238281 41.890625 -57.4375 Z M 41.890625 -57.4375 "/></g></g></g><g clip-path="url(#537bebecca)"><path stroke-linecap="butt" transform="matrix(0.575321, 0, 0, 0.575321, 13.757242, 9.22614)" fill="none" stroke-linejoin="miter" d="M 77.084253 157.073243 L 64.048063 159.137306 C 62.309905 148.59293 60.721119 138.055343 59.274917 127.517756 C 57.855873 116.980169 56.491147 106.395054 55.180738 95.762412 C 55.092472 95.850678 55.024576 95.979682 54.977048 96.135845 C 54.92952 96.271638 54.909151 96.427801 54.909151 96.611122 C 54.257342 99.089356 53.598742 101.628698 52.946933 104.229146 C 52.315492 106.822804 51.718 109.463991 51.154457 112.145915 L 48.411425 124.061808 C 48.112679 125.351847 47.813933 126.648677 47.494818 127.959085 C 47.182493 129.242335 46.876957 130.532375 46.578211 131.815625 C 46.313413 133.126033 46.007878 134.422863 45.668393 135.706113 C 45.349278 136.996152 45.057322 138.238664 44.785735 139.433648 L 32.021132 140.010771 L 29.685482 133.071716 L 28.571974 129.615768 L 27.451676 126.125871 L 25.217871 119.051022 L 23.866724 114.345772 L 21.768712 107.270923 C 21.673656 108.106054 21.632918 108.968344 21.632918 109.844213 C 21.632918 110.726872 21.585391 111.582372 21.497125 112.417503 C 21.225537 119.5263 20.899633 126.648677 20.512621 133.777843 C 20.152768 140.88664 19.643541 148.042965 18.991732 155.240028 L 5.683955 154.024675 C 7.06226 140.146565 7.910971 126.098712 8.223296 111.874328 C 8.56278 97.636364 9.526915 83.303345 11.102121 68.88206 L 24.138311 67.904346 C 25.421561 72.616385 26.752339 77.355584 28.130644 82.12194 C 29.529319 86.881508 30.921204 91.620706 32.292719 96.339535 L 36.597378 110.455284 L 37.303505 112.824884 L 38.118267 109.070189 C 38.770076 106.401844 39.415096 103.753868 40.046537 101.112682 C 40.705136 98.471495 41.356945 95.850678 42.008755 93.257019 C 42.667354 90.595464 43.353112 87.940698 44.072818 85.306301 C 44.819683 82.665115 45.607286 80.057877 46.442417 77.484588 C 47.277548 74.795873 48.139838 72.134318 49.015707 69.493132 C 49.898366 66.851945 50.848921 64.244707 51.860584 61.671418 L 64.76098 63.33489 C 66.519508 79.039425 68.39346 94.716801 70.376047 110.353439 C 72.365424 125.969708 74.599229 141.545239 77.084253 157.073243 Z M 77.084253 157.073243 " stroke="#004873" stroke-width="10.400025" stroke-opacity="1" stroke-miterlimit="4"/></g><g fill="#4eade5" fill-opacity="1"><g transform="translate(13.757242, 100.702255)"><g><path d="M 44.359375 -1.109375 L 36.859375 0.078125 C 35.847656 -5.984375 34.929688 -12.046875 34.109375 -18.109375 C 33.285156 -24.171875 32.5 -30.257812 31.75 -36.375 C 31.695312 -36.320312 31.65625 -36.253906 31.625 -36.171875 C 31.601562 -36.097656 31.59375 -36.007812 31.59375 -35.90625 C 31.21875 -34.46875 30.84375 -33.003906 30.46875 -31.515625 C 30.101562 -30.023438 29.757812 -28.507812 29.4375 -26.96875 L 27.84375 -20.109375 C 27.6875 -19.359375 27.515625 -18.609375 27.328125 -17.859375 C 27.140625 -17.117188 26.96875 -16.378906 26.8125 -15.640625 C 26.644531 -14.890625 26.46875 -14.140625 26.28125 -13.390625 C 26.101562 -12.648438 25.929688 -11.9375 25.765625 -11.25 L 18.421875 -10.9375 L 17.078125 -14.921875 L 16.4375 -16.90625 L 15.796875 -18.90625 L 14.515625 -22.984375 L 13.71875 -25.6875 L 12.53125 -29.765625 C 12.476562 -29.285156 12.453125 -28.789062 12.453125 -28.28125 C 12.453125 -27.78125 12.421875 -27.289062 12.359375 -26.8125 C 12.203125 -22.707031 12.015625 -18.609375 11.796875 -14.515625 C 11.585938 -10.421875 11.300781 -6.300781 10.9375 -2.15625 L 3.265625 -2.875 C 4.066406 -10.851562 4.5625 -18.9375 4.75 -27.125 C 4.9375 -35.3125 5.476562 -43.554688 6.375 -51.859375 L 13.875 -52.421875 C 14.625 -49.703125 15.394531 -46.972656 16.1875 -44.234375 C 16.988281 -41.492188 17.789062 -38.769531 18.59375 -36.0625 L 21.0625 -27.921875 L 21.46875 -26.5625 L 21.9375 -28.71875 C 22.3125 -30.257812 22.679688 -31.785156 23.046875 -33.296875 C 23.421875 -34.816406 23.796875 -36.320312 24.171875 -37.8125 C 24.546875 -39.351562 24.945312 -40.878906 25.375 -42.390625 C 25.800781 -43.910156 26.253906 -45.414062 26.734375 -46.90625 C 27.203125 -48.445312 27.6875 -49.972656 28.1875 -51.484375 C 28.695312 -53.003906 29.25 -54.507812 29.84375 -56 L 37.265625 -55.046875 C 38.273438 -46.003906 39.347656 -36.988281 40.484375 -28 C 41.628906 -19.007812 42.921875 -10.046875 44.359375 -1.109375 Z M 44.359375 -1.109375 "/></g></g></g><g clip-path="url(#f6eed2037c)"><path stroke-linecap="butt" transform="matrix(0.575321, 0, 0, 0.575321, 59.083343, 12.237009)" fill="none" stroke-linejoin="miter" d="M 56.161971 62.895038 C 56.345292 68.082355 56.433558 73.215355 56.433558 78.294038 C 56.433558 83.37272 56.433558 88.464982 56.433558 93.564033 C 56.433558 98.642715 56.406399 103.755346 56.365661 108.895135 C 56.318133 114.021345 56.297764 119.120397 56.297764 124.199079 L 56.161971 127.926615 C 56.161971 128.578424 56.161971 129.230234 56.161971 129.888833 C 56.161971 130.540642 56.161971 131.2264 56.161971 131.952896 C 56.073705 133.351571 55.978649 134.750245 55.890383 136.14892 C 55.802117 137.527225 55.605217 138.993797 55.31326 140.548634 C 55.224994 140.935646 55.136729 141.309078 55.041673 141.668932 C 54.953407 142.028785 54.865141 142.402217 54.770086 142.782439 L 54.505288 143.902737 L 54.063959 145.11809 C 53.968903 145.505102 53.839899 145.885324 53.656578 146.272336 C 53.473256 146.632189 53.337463 147.03957 53.249197 147.487689 L 52.53628 148.607987 C 52.359749 148.96784 52.176427 149.341272 51.999895 149.721495 L 51.320927 150.807844 L 50.472217 151.928141 L 50.064836 152.464526 L 49.630296 153.041649 L 48.815534 154.161947 C 48.543947 154.338479 48.170515 154.657594 47.695237 155.105713 L 47.294646 155.547042 C 47.19959 155.635308 46.961951 155.818629 46.581729 156.090217 C 46.038554 156.45007 45.529328 156.775974 45.06084 157.067931 C 44.605931 157.339518 44.144233 157.563578 43.668955 157.746899 C 42.833824 158.133911 41.978324 158.459816 41.095666 158.731403 C 40.240166 159.00299 39.391455 159.22705 38.556325 159.403582 C 36.981118 159.702328 35.310856 159.892439 33.545539 159.980704 C 31.990702 159.980704 30.354388 159.838121 28.636599 159.539375 C 26.925599 159.267788 25.228178 158.806089 23.564706 158.15428 C 21.711123 157.52284 20.095179 156.65376 18.723663 155.547042 C 17.053401 154.331689 15.661516 152.892276 14.554798 151.249173 C 13.44808 149.578911 12.612949 147.725328 12.049405 145.695213 C 11.777818 144.771816 11.601286 143.84842 11.51302 142.918233 C 11.417965 141.994836 11.377227 141.112178 11.377227 140.277047 L 24.678214 140.277047 C 24.678214 141.112178 24.76648 141.757197 24.949801 142.212106 C 25.133123 142.77565 25.323234 143.278086 25.526924 143.732995 C 25.886778 144.113217 26.246631 144.48665 26.606484 144.846503 C 27.081762 145.233515 27.692833 145.559419 28.432908 145.831007 C 29.906269 146.374181 31.562952 146.645769 33.409745 146.645769 C 34.244876 146.550713 35.080007 146.462447 35.915138 146.374181 C 36.750269 146.19086 37.483555 145.9668 38.114995 145.695213 C 38.413741 145.518681 38.556325 145.423626 38.556325 145.423626 L 38.827912 145.11809 L 39.099499 144.846503 C 39.282821 144.669971 39.418614 144.534177 39.50688 144.445912 L 39.642674 144.310118 L 39.812416 144.038531 L 40.219797 143.597201 L 40.484594 143.054027 C 40.851237 142.402217 41.163563 141.634983 41.43515 140.752324 C 41.727106 139.876455 41.964745 138.980217 42.148066 138.07719 C 42.528289 136.026706 42.745559 133.826849 42.786297 131.477618 C 42.833824 129.108019 42.901721 126.636575 42.989987 124.063285 C 42.989987 123.228155 42.989987 122.413393 42.989987 121.62579 C 42.989987 120.838186 42.989987 120.023425 42.989987 119.188294 C 41.231459 120.410436 39.425404 121.381361 37.57861 122.101067 C 34.713364 123.228155 31.753063 123.601587 28.704496 123.214575 C 26.945968 123.038043 25.377551 122.664611 23.999246 122.101067 C 22.600571 121.557893 21.303742 120.824607 20.108758 119.90121 C 18.913774 119.066079 17.854583 118.163052 16.924397 117.192127 C 16.001 116.221202 15.118342 115.229909 14.283211 114.211457 C 12.79627 112.269607 11.546969 110.219123 10.528516 108.053215 C 9.510064 105.860147 8.688512 103.66029 8.057072 101.453644 C 7.405262 99.240207 6.882457 97.026771 6.502235 94.813334 C 6.135592 92.579529 5.911532 90.359303 5.823267 88.145866 C 5.551679 83.902315 5.483782 79.753819 5.619576 75.6868 C 5.75537 71.606201 5.775739 67.668185 5.687473 63.872752 L 18.98846 63.601165 C 19.083516 67.844717 19.056357 71.945685 18.920564 75.89049 C 18.78477 79.821716 18.852667 83.623938 19.124254 87.297156 C 19.21931 89.062474 19.395841 90.821001 19.667429 92.579529 C 19.959385 94.344846 20.332817 96.001529 20.787726 97.556366 C 21.799389 100.89689 23.191274 103.823243 24.949801 106.328635 C 25.873198 107.52362 26.796595 108.433437 27.726781 109.064877 C 28.107004 109.363623 28.527964 109.594473 28.976083 109.777794 C 29.159404 109.777794 29.335936 109.798163 29.519258 109.845691 C 29.722948 109.893219 29.913059 109.961115 30.096381 110.049381 C 31.108043 110.137647 32.078968 110.001854 33.009154 109.642 C 34.020817 109.261778 35.039269 108.603179 36.050932 107.679782 C 36.886063 106.960076 37.721194 105.989151 38.556325 104.767009 C 39.187765 103.572024 39.832785 102.091874 40.484594 100.333346 C 41.686368 97.284779 42.562237 94.012152 43.125781 90.515466 C 43.125781 85.891692 43.125781 81.308656 43.125781 76.773149 C 43.125781 72.237641 43.037515 67.756451 42.854193 63.329578 Z M 56.161971 62.895038 " stroke="#78003a" stroke-width="10.400025" stroke-opacity="1" stroke-miterlimit="4"/></g><g fill="#f070ae" fill-opacity="1"><g transform="translate(59.083343, 103.713123)"><g><path d="M 32.3125 -55.28125 C 32.414062 -52.3125 32.46875 -49.363281 32.46875 -46.4375 C 32.46875 -43.507812 32.46875 -40.582031 32.46875 -37.65625 C 32.46875 -34.726562 32.453125 -31.785156 32.421875 -28.828125 C 32.398438 -25.878906 32.390625 -22.945312 32.390625 -20.03125 L 32.3125 -17.875 C 32.3125 -17.5 32.3125 -17.125 32.3125 -16.75 C 32.3125 -16.382812 32.3125 -15.988281 32.3125 -15.5625 C 32.257812 -14.757812 32.207031 -13.957031 32.15625 -13.15625 C 32.101562 -12.363281 31.992188 -11.515625 31.828125 -10.609375 C 31.773438 -10.398438 31.722656 -10.1875 31.671875 -9.96875 C 31.617188 -9.757812 31.566406 -9.546875 31.515625 -9.328125 L 31.359375 -8.703125 L 31.109375 -7.984375 C 31.054688 -7.765625 30.976562 -7.546875 30.875 -7.328125 C 30.769531 -7.117188 30.691406 -6.882812 30.640625 -6.625 L 30.234375 -5.984375 C 30.128906 -5.773438 30.023438 -5.5625 29.921875 -5.34375 L 29.515625 -4.703125 L 29.046875 -4.0625 L 28.796875 -3.75 L 28.5625 -3.4375 L 28.078125 -2.796875 C 27.921875 -2.679688 27.707031 -2.492188 27.4375 -2.234375 L 27.203125 -2 C 27.148438 -1.945312 27.019531 -1.835938 26.8125 -1.671875 C 26.488281 -1.460938 26.191406 -1.273438 25.921875 -1.109375 C 25.660156 -0.953125 25.394531 -0.820312 25.125 -0.71875 C 24.644531 -0.507812 24.148438 -0.320312 23.640625 -0.15625 C 23.140625 0 22.648438 0.128906 22.171875 0.234375 C 21.273438 0.398438 20.320312 0.507812 19.3125 0.5625 C 18.40625 0.5625 17.457031 0.476562 16.46875 0.3125 C 15.488281 0.15625 14.519531 -0.109375 13.5625 -0.484375 C 12.5 -0.847656 11.566406 -1.351562 10.765625 -2 C 9.804688 -2.6875 9.007812 -3.507812 8.375 -4.46875 C 7.738281 -5.425781 7.257812 -6.488281 6.9375 -7.65625 C 6.78125 -8.1875 6.675781 -8.71875 6.625 -9.25 C 6.570312 -9.78125 6.546875 -10.285156 6.546875 -10.765625 L 14.203125 -10.765625 C 14.203125 -10.285156 14.253906 -9.914062 14.359375 -9.65625 C 14.460938 -9.332031 14.570312 -9.039062 14.6875 -8.78125 C 14.894531 -8.5625 15.101562 -8.347656 15.3125 -8.140625 C 15.582031 -7.921875 15.929688 -7.734375 16.359375 -7.578125 C 17.203125 -7.253906 18.160156 -7.09375 19.234375 -7.09375 C 19.710938 -7.15625 20.1875 -7.210938 20.65625 -7.265625 C 21.132812 -7.367188 21.5625 -7.5 21.9375 -7.65625 C 22.09375 -7.757812 22.171875 -7.8125 22.171875 -7.8125 L 22.5 -8.140625 C 22.601562 -8.242188 22.679688 -8.320312 22.734375 -8.375 L 22.8125 -8.453125 L 22.890625 -8.609375 L 23.140625 -8.859375 L 23.296875 -9.171875 C 23.503906 -9.546875 23.6875 -9.984375 23.84375 -10.484375 C 24.007812 -10.992188 24.144531 -11.515625 24.25 -12.046875 C 24.46875 -13.210938 24.585938 -14.472656 24.609375 -15.828125 C 24.640625 -17.191406 24.679688 -18.617188 24.734375 -20.109375 C 24.734375 -20.585938 24.734375 -21.050781 24.734375 -21.5 C 24.734375 -21.945312 24.734375 -22.410156 24.734375 -22.890625 C 23.722656 -22.203125 22.6875 -21.644531 21.625 -21.21875 C 19.96875 -20.582031 18.265625 -20.367188 16.515625 -20.578125 C 15.503906 -20.691406 14.597656 -20.90625 13.796875 -21.21875 C 13.003906 -21.539062 12.257812 -21.96875 11.5625 -22.5 C 10.875 -22.976562 10.265625 -23.492188 9.734375 -24.046875 C 9.203125 -24.609375 8.695312 -25.179688 8.21875 -25.765625 C 7.363281 -26.878906 6.644531 -28.0625 6.0625 -29.3125 C 5.476562 -30.5625 5 -31.828125 4.625 -33.109375 C 4.25 -34.390625 3.957031 -35.664062 3.75 -36.9375 C 3.539062 -38.21875 3.40625 -39.492188 3.34375 -40.765625 C 3.1875 -43.210938 3.144531 -45.601562 3.21875 -47.9375 C 3.300781 -50.28125 3.316406 -52.546875 3.265625 -54.734375 L 10.9375 -54.890625 C 10.988281 -52.441406 10.972656 -50.085938 10.890625 -47.828125 C 10.804688 -45.566406 10.847656 -43.375 11.015625 -41.25 C 11.066406 -40.238281 11.171875 -39.226562 11.328125 -38.21875 C 11.484375 -37.207031 11.695312 -36.25 11.96875 -35.34375 C 12.550781 -33.425781 13.347656 -31.75 14.359375 -30.3125 C 14.890625 -29.625 15.421875 -29.09375 15.953125 -28.71875 C 16.171875 -28.5625 16.410156 -28.429688 16.671875 -28.328125 C 16.773438 -28.328125 16.878906 -28.3125 16.984375 -28.28125 C 17.097656 -28.257812 17.207031 -28.21875 17.3125 -28.15625 C 17.894531 -28.101562 18.453125 -28.1875 18.984375 -28.40625 C 19.566406 -28.613281 20.15625 -28.984375 20.75 -29.515625 C 21.226562 -29.941406 21.703125 -30.5 22.171875 -31.1875 C 22.546875 -31.882812 22.921875 -32.738281 23.296875 -33.75 C 23.984375 -35.5 24.488281 -37.382812 24.8125 -39.40625 C 24.8125 -42.070312 24.8125 -44.707031 24.8125 -47.3125 C 24.8125 -49.914062 24.757812 -52.492188 24.65625 -55.046875 Z M 32.3125 -55.28125 "/></g></g></g></svg>